<?xml version="1.0" standalone="no"?>
<!DOCTYPE svg PUBLIC "-//W3C//DTD SVG 1.1//EN" "http://www.w3.org/Graphics/SVG/1.1/DTD/svg11.dtd" >
<svg xmlns="http://www.w3.org/2000/svg">
<metadata>
<json>
<![CDATA[
{
	"fontFamily": "Bowtie",
	"majorVersion": 1,
	"minorVersion": 0,
	"description": "Icon font for Visual Studio Online\nFont generated by IcoMoon.",
	"copyright": "Copyright (C) 2015, Microsoft Corp.",
	"designer": "Jim Lamb",
	"license": "CC BY 4.0",
	"licenseURL": "http://creativecommons.org/licenses/by/4.0/",
	"version": "Version 1.0",
	"fontId": "Bowtie",
	"psName": "Bowtie",
	"subFamily": "Regular",
	"fullName": "Bowtie"
}
]]>
</json>
</metadata>
<defs>
<font id="Bowtie" horiz-adv-x="1024">
<font-face units-per-em="1024" ascent="844.8" descent="-179.2" />
<missing-glyph horiz-adv-x="1024" />
<glyph unicode="&#x20;" horiz-adv-x="256" d="" />
<glyph unicode="&#xe900;" glyph-name="uE900-arrow-up" data-tags="uE900-arrow-up" d="M512-143.143h-73.143v880.857l-339.856-339.856-51.714 51.714 428.142 428.142 428.144-428.144-51.714-51.714-339.858 339.858v-880.857z" />
<glyph unicode="&#xe901;" glyph-name="uE901-arrow-left" data-tags="uE901-arrow-left" d="M1024 365.714h-880.857l339.858-339.858-51.714-51.714-428.144 428.144 428.144 428.142 51.714-51.714-339.858-339.856h880.857v-73.143z" />
<glyph unicode="&#xe902;" glyph-name="uE902-arrow-down" data-tags="uE902-arrow-down" d="M512 877.714v-880.857l339.858 339.858 51.714-51.714-428.144-428.144-428.142 428.142 51.714 51.714 339.856-339.856v880.857h73.143z" />
<glyph unicode="&#xe903;" glyph-name="uE903-arrow-right" data-tags="uE903-arrow-right" d="M3.143 365.714v73.143h880.857l-339.858 339.856 51.714 51.714 428.144-428.142-428.144-428.144-51.714 51.714 339.858 339.858h-880.857z" />
<glyph unicode="&#xe904;" glyph-name="uE904-arrow-up-left" data-tags="uE904-arrow-up-left" d="M976.715-47.285l-851.851 851.856h460.279v73.143h-587.429v-585.143h73.143v462.565l854.142-854.139 51.717 51.719z" />
<glyph unicode="&#xe905;" glyph-name="uE905-arrow-up-right" data-tags="uE905-arrow-up-right" d="M1024 877.714v-585.143h-73.143v460.281l-851.854-851.854-51.721 51.719 851.856 851.854h-460.281v73.143h585.143z" />
<glyph unicode="&#xe906;" glyph-name="uE906-arrow-down-left" data-tags="uE906-arrow-down-left" d="M976.715 778.711l-51.719 51.721-851.854-851.856v460.281h-73.143v-587.429h585.143v73.143h-462.567l854.139 854.139z" />
<glyph unicode="&#xe907;" glyph-name="uE907-arrow-down-right" data-tags="uE907-arrow-down-right" d="M1024 438.857v-585.143h-585.143v73.143h460.281l-851.856 851.854 51.721 51.721 851.854-851.856v460.281h73.143z" />
<glyph unicode="&#xe908;" glyph-name="uE908-arrow-export" data-tags="uE908-arrow-export" d="M1024 548.571c0-181.499-147.643-329.143-329.143-329.143h-551.714l266.715-266.715-51.714-51.714-355.001 355.001 355.001 355.001 51.714-51.714-266.715-266.715h551.714c141.143 0 256 114.857 256 256s-114.857 256-256 256v73.143c181.499 0 329.143-147.643 329.143-329.143z" />
<glyph unicode="&#xe909;" glyph-name="uE909-arrow-open" data-tags="uE909-arrow-open" d="M1020.8 475.428l-354.971-354.971-51.657 51.657 266.743 266.743h-551.771c-141.257 0-256-114.971-256-256s114.971-256 256-256v-73.143c-181.486 0-329.143 147.657-329.143 329.143s147.657 329.143 329.143 329.143h551.771l-266.743 266.743 51.657 51.657 354.971-354.971z" />
<glyph unicode="&#xe90a;" glyph-name="uE90A-sort" data-tags="uE90A-sort" d="M462.537 567.428l-169.966 170.29v-884.005h-73.143v884.005l-168.48-170.29-50.949 51.714 257.275 258.571 256.891-258.571-51.627-51.714zM973.017 164l-168.446-170.286v884h-73.143v-884.005l-169.966 170.29-51.735-51.714 256.946-258.571 257.326 258.571-50.983 51.714z" />
<glyph unicode="&#xe90b;" glyph-name="uE90B-sort-ascending" data-tags="uE90B-sort-ascending" d="M512-143.143h-73.143v880.857l-339.856-339.856-51.714 51.714 428.142 428.142 428.144-428.144-51.714-51.714-339.858 339.858v-880.857z" />
<glyph unicode="&#xe90c;" glyph-name="uE90C-sort-descending" data-tags="uE90C-sort-descending" d="M512 877.714v-880.857l339.858 339.858 51.714-51.714-428.144-428.144-428.142 428.142 51.714 51.714 339.856-339.856v880.857h73.143z" />
<glyph unicode="&#xe90d;" glyph-name="uE90D-switch" data-tags="uE90D-switch" d="M1009.211 548.571l-258.567-258.642-51.714 51.749 170.29 170.322h-503.506v73.143h503.504l-170.293 170.322 51.717 51.714 258.569-258.608zM325.074 389.751l-51.717 51.714-258.569-258.608 258.569-258.571 51.717 51.714-170.286 170.286h503.497v73.143h-503.504l170.29 170.322z" />
<glyph unicode="&#xe90e;" glyph-name="uE90E-synchronize" data-tags="uE90E-synchronize" d="M73.143 877.714h365.714v-365.714h-73.143v248.126c-162.885-60.53-274.286-218.64-274.286-394.411 0-153.646 83.771-295.040 218.629-369.013l-35.177-64.13c-158.272 86.816-256.594 252.789-256.594 433.143 0 108.955 34.789 212.261 100.617 298.75 44.512 58.491 102.085 106.491 167.006 140.107h-212.766v73.143zM905.097 66.967c65.829 86.487 100.617 189.792 100.617 298.747 0 180.357-98.322 346.331-256.594 433.143l-35.177-64.13c134.857-73.966 218.629-215.367 218.629-369.013 0-175.771-111.401-333.881-274.286-394.414v248.128h-73.143v-365.714h365.714v73.143h-212.773c64.923 33.618 122.498 81.614 167.017 140.11z" />
<glyph unicode="&#xe90f;" glyph-name="uE90F-transfer-download" data-tags="uE90F-transfer-download" d="M146.286-73.143h658.286v-73.143h-658.286v73.143zM778.679 391.46l-266.679-268.507v754.761h-73.143v-754.761l-266.606 268.507-51.931-51.493 355.109-357.669 355.035 357.669-51.785 51.493z" />
<glyph unicode="&#xe910;" glyph-name="uE910-transfer-upload" data-tags="uE910-transfer-upload" d="M146.286 877.714h658.286v-73.143h-658.286v73.143zM830.464 391.46l-355.035 357.669-355.109-357.669 51.931-51.493 266.606 268.507v-754.761h73.143v754.761l266.679-268.507 51.785 51.493z" />
<glyph unicode="&#xe911;" glyph-name="uE911-azure-api-management" data-tags="uE911-azure-api-management" d="M694.926 182.857c0-68.357-26.64-132.64-75.070-181.001-48.357-48.43-112.64-75.072-181.001-75.072s-132.651 26.642-181.006 75.072l51.71 51.714c69.143-69.143 189.429-69.143 258.571 0 34.571 34.571 53.646 80.503 53.646 129.287s-19.074 94.715-53.646 129.287c-69.143 69.143-189.429 69.143-258.571 0l-51.714 51.714c96.72 96.786 265.291 96.786 362.005 0 48.434-48.359 75.074-112.645 75.074-181.001zM832.96 543.209c-20.281 141.669-142.43 250.917-289.611 250.917-97.463 0-187.817-49.723-241.499-128.64-13.417 2.167-26.971 3.253-40.633 3.253-144.032 0-261.216-117.189-261.216-261.225 0-144.039 117.184-261.227 261.223-261.227h74.633c15.109-42.514 55.298-73.143 103.001-73.143 60.594 0 109.714 49.12 109.714 109.714s-49.12 109.714-109.714 109.714c-47.703 0-87.886-30.629-103.001-73.143h-74.633c-103.874 0-188.080 84.21-188.080 188.085 0 103.87 84.206 188.080 188.080 188.080 27.643 0 53.691-6.313 77.33-17.022 31.273 83.040 110.848 142.411 204.823 142.411 121.189 0 219.429-98.245 219.429-219.429l0.149-31.314 62.514 0.144c69.257 0 125.387-56.334 125.387-125.589 0.002-69.253-56.135-125.367-125.392-125.367h-57.321l-0.142-73.143h57.47c109.467 0 198.53 89.063 198.53 198.53 0 106.965-85.022 194.446-191.040 198.393z" />
<glyph unicode="&#xe912;" glyph-name="uE912-azure-service-endpoint" data-tags="uE912-azure-service-endpoint" d="M469.607 186.925l51.714-51.712c-53.463-53.429-123.68-80.144-193.929-80.144-70.217 0-140.43 26.715-193.893 80.144-51.822 51.858-80.393 120.718-80.393 193.929s28.571 142.071 80.393 193.893c106.857 106.965 280.857 106.965 387.822 0l-51.714-51.714c-78.322 78.393-205.893 78.43-284.393 0-38.034-38-58.955-88.503-58.955-142.178 0-53.646 20.965-104.215 58.965-142.217 78.432-78.423 205.966-78.423 284.395 0zM950.857 365.714h-518.713c-15.109 42.514-55.298 73.143-103.001 73.143-60.594 0-109.714-49.12-109.714-109.714s49.12-109.714 109.714-109.714c47.703 0 87.886 30.629 103.001 73.143h518.713v73.143z" />
<glyph unicode="&#xe913;" glyph-name="uE913-brand-android" data-tags="uE913-brand-android" d="M259.255 510.85h505.49v-404.473c-0.009-34.811-17.253-50.469-51.966-50.469h-49.12v-143.131c0-32.549-17.989-59.017-50.571-58.999-32.494-0.055-50.526 26.437-50.526 58.949v143.182h-101.097v-143.177c0-32.549-17.995-59.017-50.583-59.017-32.487 0-50.514 26.453-50.514 58.976v143.223h-48.914c-34.793 0-52.217 15.566-52.19 50.377v404.562zM208.709 441.2v-246.983c0-32.629-17.95-58.99-50.537-58.985-32.567-0.005-50.56 26.336-50.56 58.985v246.949c0 32.542 17.957 58.987 50.521 58.971 32.571 0.023 50.574-26.405 50.574-58.937zM916.389 194.297c0-32.629-17.977-58.981-50.537-58.99-32.59 0.016-50.56 26.361-50.56 58.965v246.958c0 32.571 17.979 59.017 50.542 58.99 32.567 0.007 50.56-26.391 50.56-58.958v-246.965zM246.263 561.399h531.211c0.014 78.606-40.645 150.926-103.554 196.229l35.794 85.015c5.394 12.809-0.677 27.71-13.486 33.102-12.814 5.394-27.707-0.677-33.102-13.486l-22.789-54.13-12.942-23.634c-34.994 15.559-74.133 24.297-115.554 24.251-41.303 0.037-80.434-8.663-115.275-24.142l-12.8 23.296-22.887 54.359c-5.394 12.809-20.286 18.88-33.097 13.486s-18.88-20.293-13.486-33.102l35.749-84.903c-63.051-45.257-103.806-117.691-103.771-196.331zM638.373 713.047c13.957 0 25.275-11.314 25.275-25.275 0-13.957-11.314-25.275-25.275-25.275s-25.275 11.319-25.275 25.275c0 13.961 11.314 25.275 25.275 25.275zM385.627 713.047c13.961 0 25.275-11.314 25.275-25.275 0-13.957-11.314-25.275-25.275-25.275-13.959 0-25.275 11.314-25.275 25.275s11.319 25.275 25.275 25.275z" />
<glyph unicode="&#xe914;" glyph-name="uE914-brand-facebook" data-tags="uE914-brand-facebook" d="M56.519 877.776c-31.216 0-56.519-25.303-56.519-56.519v-910.962c0-31.211 25.296-56.519 56.519-56.519h490.43v396.549h-133.44v154.537h133.44v113.979c0 132.261 80.777 204.274 198.766 204.274 56.519 0 105.097-4.206 119.25-6.089v-138.229l-81.833-0.039c-64.16 0-76.587-30.491-76.587-75.237v-98.665h153.035l-19.931-154.544h-133.104v-396.549h260.946c31.207 0 56.512 25.303 56.512 56.519v910.974c0 31.216-25.291 56.517-56.503 56.517h-910.974z" />
<glyph unicode="&#xe915;" glyph-name="uE915-brand-git" data-tags="uE915-brand-git" d="M1004.667 317.981l-444.992-445.045c-25.806-25.63-67.538-25.63-93.234 0l-447.115 447.086c-25.771 25.774-25.771 67.582 0 93.355l306.521 306.553 116.107-116.123c-11.886-28.526-6.299-62.606 16.891-85.765 7.589-7.657 5.406-4.149 14.784-7.982v-283.465c-8.48-3.435-12.921-9.234-19.291-15.817-16.857-14.967-27.669-36.587-27.669-60.93 0-45.248 36.686-81.897 81.893-81.897 5.833 0 11.561 0.64 17.074 1.783 16.137 2.363 31.71 9.515 44.128 21.906 27.31 27.275 30.103 69.655 8.697 100.302-7.297 11.944-17.212 21.617-28.993 28.422l-0.392 275.615 105.845-105.806c-11.739-28.425-6.011-62.322 17.040-85.371 30.629-30.679 80.32-30.679 111.097 0 30.64 30.638 30.64 80.32 0 110.965-22.053 21.979-53.687 28.069-81.175 18.615l-113.531 113.502c9.595 27.451 3.438 59.141-18.574 81.12-21.76 21.794-53.15 27.989-80.496 18.752l-117.831 117.776 92.846 92.853c25.769 25.767 67.575 25.767 93.234 0l447.143-447.086c25.783-25.778 25.783-67.55 0.007-93.326z" />
<glyph unicode="&#xe916;" glyph-name="uE916-brand-github" data-tags="uE916-brand-github" d="M1024 353.028c0-226.149-146.583-417.897-349.851-485.737-25.957-5.015-35.223 10.907-35.223 24.631 0 16.793 0.617 71.986 0.617 140.441 0 47.76-16.389 78.994-34.766 94.811 114.071 12.699 233.778 55.963 233.778 252.674 0 55.909-19.817 101.582-52.633 137.371 5.28 12.951 22.834 65.022-5.12 135.474 0 0-42.903 13.771-140.64-52.48-40.914 11.367-84.686 17.051-128.206 17.257-43.52-0.206-87.344-5.89-128.206-17.257-97.79 66.254-140.8 52.48-140.8 52.48-27.749-70.45-10.194-122.521-4.914-135.474-32.768-35.794-52.686-81.463-52.686-137.371 0-196.201 119.497-240.13 233.211-253.033-14.638-12.8-27.847-35.383-32.503-68.457-29.189-13.106-103.323-35.685-148.994 42.549 0 0-27.033 49.152-78.439 52.786 0 0-50.023 0.617-3.534-31.131 0 0 33.586-15.767 56.832-74.903 0 0 30.057-99.584 172.494-68.608l0.709-87.095c0-13.568-9.317-29.39-34.971-24.679-203.463 67.701-350.155 259.602-350.155 485.751 0 282.834 229.273 512.055 511.95 512.055 282.775 0 512.050-229.227 512.050-512.055z" />
<glyph unicode="&#xe917;" glyph-name="uE917-brand-maven" data-tags="uE917-brand-maven" d="M640.727 37.22c-14.35-10.878-32.128-23.979-53.33-39.257-21.248-15.323-41.248-27.406-59.995-36.293-23.347-10.891-50.6-19.968-79.016-25.868-30.605-6.075-61.483-8.946-95.046-8.946-79.022 0-145.175 24.443-198.505 73.328s-79.993 111.335-79.993 187.394c0 60.736 13.563 110.363 40.738 148.878 27.127 38.517 65.643 68.885 115.547 91.104 49.349 22.222 110.594 38.007 183.691 47.403 73.049 9.351 148.878 16.295 227.392 20.738v4.443c0 45.922-18.795 77.634-56.293 95.179-37.543 17.499-92.864 26.295-165.913 26.295-43.979 0-90.873-7.778-140.731-23.333-49.904-15.554-85.689-27.545-107.399-35.922h-24.446v200.727c28.146 7.408 73.929 16.155 137.397 26.295 63.422 10.091 127.029 15.184 190.729 15.184 151.563 0 261.093-23.333 328.494-69.995s101.104-119.899 101.104-219.614v-565.886h-264.425v88.144zM640.727 166.653v172.766c-36.062-2.962-75.088-7.035-117.029-12.176-41.989-5.184-73.838-11.202-95.55-18.101-26.665-8.379-47.033-20.553-61.106-36.571-14.073-15.97-21.109-37.035-21.109-63.097 0-17.221 1.481-31.248 4.443-42.080s10.37-21.202 22.222-31.017c11.342-9.861 24.905-17.129 40.738-21.758 15.785-4.722 40.459-7.035 74.069-7.035 26.665 0 53.701 5.417 81.106 16.249s51.477 25.090 72.215 42.821z" />
<glyph unicode="&#xe918;" glyph-name="uE918-brand-mtm" data-tags="uE918-brand-mtm" d="M512 380.8l-268.343 175.314 268.343 175.314 273.143-175.314-273.143-175.314zM877.943 374.171l-0.229-74.743c101.257-73.143 92.114-153.143-87.086-156.114-19.886-0.457-58.971 8.229-80.914 10.514l94.857 67.886v262.857l-292.571-181.029-292.571 184v-146.057c-6.857 5.714-14.4 10.971-20.8 16.914-113.371 103.086-72.686 174.171-24.914 227.657l48.914 54.629c-4.8 17.6-14.171 12.8-25.829 12.8-235.657-1.371-218.514-154.514-50.514-307.2 22.171-20.114 46.629-39.543 72.914-58.514v-103.771l292.8-184 123.886 82.514c52.343-10.286 160-5.257 205.029-4.114 201.829 4.343 254.629 136.457 37.029 295.771z" />
<glyph unicode="&#xe919;" glyph-name="uE919-brand-npm" data-tags="uE919-brand-npm" d="M0 877.714v-1024h1024v1024h-1024zM877.714 0h-146.286v585.143h-219.429v-585.143h-365.714v731.429h731.429v-731.429z" />
<glyph unicode="&#xe91a;" glyph-name="uE91A-brand-nuget" data-tags="uE91A-brand-nuget" d="M438.048 737.124c-156.007 0-281.6-125.662-281.6-281.76v-304.526c0-156.096 125.593-281.765 281.6-281.765h304.352c156.009 0 281.6 125.669 281.6 281.765v304.526c0 156.098-125.591 281.76-281.6 281.76h-304.35zM378.311 589.131c58.126 0 105.257-47.143 105.257-105.303 0-58.158-47.115-105.307-105.241-105.307h-0.007c-58.126 0-105.241 47.147-105.241 105.307 0 58.155 47.118 105.303 105.243 105.303zM713.966 332.983c100.533 0 182.034-81.554 182.034-182.149s-81.504-182.149-182.041-182.149c-100.539 0-182.043 81.547-182.046 182.149 0 100.594 81.502 182.149 182.043 182.149zM99.561 862.354c54.976 0 99.547-44.599 99.547-99.611s-44.571-99.611-99.557-99.611-99.552 44.594-99.552 99.611 44.571 99.611 99.557 99.611z" />
<glyph unicode="&#xe91b;" glyph-name="uE91B-brand-tfvc" data-tags="uE91B-brand-tfvc" d="M762.775 240.327c-23.257 0-44.686-6.734-63.305-17.755l-178.162 178.162c32.937 42.491 53.387 95.154 53.387 153.070 0 10.171-1.829 19.84-2.939 29.632l144.114 36.123c21.184-39.063 62.080-65.755 109.591-65.755 69.303 0 125.39 56.206 125.39 125.387 0.007 69.296-56.085 125.381-125.383 125.381-68.937 0-124.777-55.589-125.266-124.411l-143.017-35.749c-36.366 93.554-126.864 160.16-233.266 160.16-138.491 0-250.775-112.286-250.775-250.775 0-106.409 66.619-196.777 160.155-233.143l-35.749-143.143c-68.807-0.482-124.407-56.322-124.407-125.259 0-69.307 56.091-125.394 125.387-125.394s125.387 56.082 125.387 125.387c0 47.511-26.697 88.411-65.623 109.591l35.991 144.245c9.797-1.225 19.463-3.063 29.632-3.063 57.92 0 110.565 20.45 153.061 53.39l178.162-178.162c-11.017-18.613-17.755-40.041-17.755-63.305 0-69.303 56.091-125.387 125.387-125.387s125.387 56.073 125.387 125.378c0 69.303-56.087 125.387-125.385 125.387zM323.918 428.409c-69.298 0-125.387 56.073-125.387 125.378s56.091 125.387 125.387 125.387 125.387-56.080 125.387-125.385-56.080-125.387-125.378-125.387z" />
<glyph unicode="&#xe91c;" glyph-name="uE91C-brand-twitter" data-tags="uE91C-brand-twitter" d="M919.147 574.548l0.617-27.186c0-277.584-211.291-597.721-597.733-597.721-118.629 0-229.067 34.766-322.034 94.354 16.434-1.943 33.166-2.917 50.126-2.917 98.4 0 189.013 33.586 260.891 89.954-91.947 1.691-169.513 62.462-196.238 145.913 11.934-2.405 25.653-3.782 39.693-3.782 19.629 0 38.629 2.691 56.652 7.723-97.575 18.946-170.018 103.83-170.018 205.613v2.663c27.441-15.541 60.072-25.141 94.847-26.254-56.040 37.619-93.11 101.923-93.11 174.826 0 38.503 10.345 74.597 28.469 105.623 103.573-127.125 258.4-210.731 432.983-219.486-3.589 15.36-5.431 31.383-5.431 47.87 0 116.014 94.050 210.064 210.064 210.064 60.411 0 114.985-25.497 153.333-66.354 47.872 9.424 92.823 26.933 133.417 50.994-15.662-49.047-48.992-90.21-92.357-116.217 42.491 5.074 82.994 16.389 120.672 33.074-28.21-42.13-63.84-79.145-104.853-108.738z" />
<glyph unicode="&#xe91d;" glyph-name="uE91D-brand-visualstudio" data-tags="uE91D-brand-visualstudio" d="M768 877.714l-402.286-402.286-268.197 207.232-97.518-61.536v-511.41l97.518-60.928 268.197 207.214 402.286-402.286 256 109.714v816.768l-256 97.518zM109.714 219.428v292.571l146.286-146.286-146.286-146.286zM768 146.285l-256 219.429 256 219.429v-438.857z" />
<glyph unicode="&#xe91e;" glyph-name="uE91E-brand-windows" data-tags="uE91E-brand-windows" d="M0 429.714h384v367.6l-384-53.669v-313.931zM448 806.249v-376.535h512v448l-512-71.465zM448-10.745l512-71.474v447.934h-512v-376.457zM0 51.778l384-53.6v367.536h-384v-313.927z" />
<glyph unicode="&#xe91f;" glyph-name="uE91F-git" data-tags="uE91F-git" d="M1004.667 317.981l-444.992-445.045c-25.806-25.63-67.538-25.63-93.234 0l-447.115 447.086c-25.771 25.774-25.771 67.582 0 93.355l306.521 306.553 116.107-116.123c-11.886-28.526-6.299-62.606 16.891-85.765 7.589-7.657 5.406-4.149 14.784-7.982v-283.465c-8.48-3.435-12.921-9.234-19.291-15.817-16.857-14.967-27.669-36.587-27.669-60.93 0-45.248 36.686-81.897 81.893-81.897 5.833 0 11.561 0.64 17.074 1.783 16.137 2.363 31.71 9.515 44.128 21.906 27.31 27.275 30.103 69.655 8.697 100.302-7.297 11.944-17.212 21.617-28.993 28.422l-0.392 275.615 105.845-105.806c-11.739-28.425-6.011-62.322 17.040-85.371 30.629-30.679 80.32-30.679 111.097 0 30.64 30.638 30.64 80.32 0 110.965-22.053 21.979-53.687 28.069-81.175 18.615l-113.531 113.502c9.595 27.451 3.438 59.141-18.574 81.12-21.76 21.794-53.15 27.989-80.496 18.752l-117.831 117.776 92.846 92.853c25.769 25.767 67.575 25.767 93.234 0l447.143-447.086c25.783-25.778 25.783-67.55 0.007-93.326z" />
<glyph unicode="&#xe920;" glyph-name="uE920-logo-visual-studio" data-tags="uE920-logo-visual-studio" d="M768 877.714l-402.286-402.286-268.197 207.232-97.518-61.536v-511.41l97.518-60.928 268.197 207.214 402.286-402.286 256 109.714v816.768l-256 97.518zM109.714 219.428v292.571l146.286-146.286-146.286-146.286zM768 146.285l-256 219.429 256 219.429v-438.857z" />
<glyph unicode="&#xe921;" glyph-name="uE921-tfvc-repo" data-tags="uE921-tfvc-repo" d="M762.775 240.327c-23.257 0-44.686-6.734-63.305-17.755l-178.162 178.162c32.937 42.491 53.387 95.154 53.387 153.070 0 10.171-1.829 19.84-2.939 29.632l144.114 36.123c21.184-39.063 62.080-65.755 109.591-65.755 69.303 0 125.39 56.206 125.39 125.387 0.007 69.296-56.085 125.381-125.383 125.381-68.937 0-124.777-55.589-125.266-124.411l-143.017-35.749c-36.366 93.554-126.864 160.16-233.266 160.16-138.491 0-250.775-112.286-250.775-250.775 0-106.409 66.619-196.777 160.155-233.143l-35.749-143.143c-68.807-0.482-124.407-56.322-124.407-125.259 0-69.307 56.091-125.394 125.387-125.394s125.387 56.082 125.387 125.387c0 47.511-26.697 88.411-65.623 109.591l35.991 144.245c9.797-1.225 19.463-3.063 29.632-3.063 57.92 0 110.565 20.45 153.061 53.39l178.162-178.162c-11.017-18.613-17.755-40.041-17.755-63.305 0-69.303 56.091-125.387 125.387-125.387s125.387 56.073 125.387 125.378c0 69.303-56.087 125.387-125.385 125.387zM323.918 428.409c-69.298 0-125.387 56.073-125.387 125.378s56.091 125.387 125.387 125.387 125.387-56.080 125.387-125.385-56.080-125.387-125.378-125.387z" />
<glyph unicode="&#xe922;" glyph-name="uE922-chart-area" data-tags="uE922-chart-area" d="M0 877.714v-1024h1024v1024h-1024zM950.857 292.571l-182.857 182.857-329.143-329.143-146.286 146.286-219.429-219.429v731.429h877.714v-512z" />
<glyph unicode="&#xe923;" glyph-name="uE923-chart-bar" data-tags="uE923-chart-bar" d="M0 877.714v-1024h1024v1024h-1024zM950.857-73.143h-877.714v73.143h731.429v146.286h-731.429v146.286h438.857v146.286h-438.857v146.286h585.143v146.286h-585.143v73.143h877.714v-877.714z" />
<glyph unicode="&#xe924;" glyph-name="uE924-chart-column" data-tags="uE924-chart-column" d="M0 877.714v-1024h1024v1024h-1024zM950.857-73.143h-73.143v731.429h-146.286v-731.429h-146.286v365.714h-146.286v-365.714h-146.286v512h-146.286v-512h-73.143v877.714h877.714v-877.714z" />
<glyph unicode="&#xe925;" glyph-name="uE925-chart-pie" data-tags="uE925-chart-pie" d="M1024 365.714c0 4.005-0.050 7.995-0.146 11.977-3.015 132.277-55.938 256.185-149.817 350.062-96.702 96.704-225.278 149.961-362.037 149.961-136.761 0-265.333-53.257-362.039-149.961s-149.961-225.278-149.961-362.039c0-136.759 53.257-265.335 149.961-362.039 96.706-96.704 225.278-149.961 362.039-149.961 136.759 0 265.335 53.257 362.039 149.961 93.877 93.874 146.8 217.787 149.817 350.064 0.094 3.979 0.144 7.97 0.144 11.975zM512-73.143c-241.986 0-438.857 196.871-438.857 438.857s196.871 438.857 438.857 438.857c120.994 0 230.709-49.218 310.174-128.683l-310.174-310.174 310.174-310.174c-79.465-79.465-189.179-128.683-310.174-128.683z" />
<glyph unicode="&#xe926;" glyph-name="uE926-chart-pivot" data-tags="uE926-chart-pivot" d="M0 877.714v-1024h1024v1024h-1024zM950.857-73.143h-877.714v877.714h877.714v-877.714zM292.571 585.143h-146.286v146.286h146.286v-146.286zM877.714 585.143h-512v146.286h512v-146.286zM292.571 0h-146.286v512h146.286v-512zM768 508.861l135.573-135.575-51.719-51.719-47.282 47.285v-295.71h-295.71l47.282-47.285-51.719-51.719-135.573 135.575 135.575 135.573 51.719-51.719-47.285-47.282h222.567v222.567l-47.285-47.282-51.719 51.719 135.575 135.573z" />
<glyph unicode="&#xe927;" glyph-name="uE927-chart-stacked-area" data-tags="uE927-chart-stacked-area" d="M0 877.714v-1024h1024v1024h-1024zM950.857-73.143l-329.143 329.143-329.143-329.143-219.429 219.429v103.429l219.429-219.429 329.143 329.143 329.143-329.143v-103.429zM950.857 512l-73.143 73.143-146.286-146.286-256 256-402.286-402.286v512h877.714v-292.571z" />
<glyph unicode="&#xe928;" glyph-name="uE928-chart-stacked-bar" data-tags="uE928-chart-stacked-bar" d="M0 877.714v-1024h1024v1024h-1024zM292.571 658.285h219.429v-146.286h-219.429v146.286zM365.714 73.143h-292.571v146.286h292.571v-146.286zM950.857-73.143h-877.714v73.143h804.571v292.571h-804.571v146.286h512v292.571h-512v73.143h877.714v-877.714z" />
<glyph unicode="&#xe929;" glyph-name="uE929-chart-stacked-line" data-tags="uE929-chart-stacked-line" d="M457.728 491.6l-52.677 50.745 69.413 72.053 52.677-50.745-69.413-72.053zM868.843 103.428l51.719 51.719-77.579 77.579-51.719-51.719 77.579-77.579zM411.454 443.563l-52.674 50.745-69.413-72.053 52.677-50.745 69.41 72.053zM1024 877.714v-1024h-1024v1024h1024zM950.857 804.571h-877.714v-259.175l203.467-203.467 19.157-18.455-0.345-0.359 216.553-216.553 146.311 146.313v112.839h146.286v-146.286h-76.295l-216.299-216.302-267.307 267.305-18.313-19.010-52.677 50.745 19.262 19.993-119.799 119.799v-244.158l54.263 56.329 52.677-50.745-69.413-72.053-37.527 36.153v-240.629h877.714v94.571l-30.281 30.281 30.281 30.281v342.967l-80.43-73.202-233.397 233.387h-125.031v146.286h146.286v-64.103l214.517-214.507 78.055 71.042v280.711z" />
<glyph unicode="&#xe92a;" glyph-name="uE92A-build-queue-new" data-tags="uE92A-build-queue-new" d="M512 731.428v-219.429h-219.429v-219.429h-219.429v-438.857h438.857v219.429h219.429v219.429h219.429v438.857h-438.857zM438.857-73.143h-292.571v292.571h292.571v-292.571zM658.286 146.285h-146.286v146.286h-146.286v146.286h292.571v-292.571zM877.714 365.714h-146.286v146.286h-146.286v146.286h292.571v-292.571zM365.714 658.285h-146.286v-146.286h-73.143v146.286h-146.286v73.143h146.286v146.286h73.143v-146.286h146.286v-73.143z" />
<glyph unicode="&#xe92b;" glyph-name="uE92B-clone-to-desktop" data-tags="uE92B-clone-to-desktop" d="M512 0v-73.143h146.286v-73.143h-365.714v73.143h146.286v73.143h-438.857v658.286h365.714v-73.143h-292.571v-512h804.571v512h-292.571v73.143h365.714v-658.286h-438.857zM594.805 464.427l-82.805-83.353v496.64h-73.143v-496.633l-81.733 83.349-51.401-51.143 170.583-172.43 170.338 172.43-51.84 51.141z" />
<glyph unicode="&#xe92c;" glyph-name="uE92C-install" data-tags="uE92C-install" d="M950.857-146.286h-950.857v365.714h950.857v-365.714zM73.143-73.143h804.571v219.429h-804.571v-219.429zM804.571 73.143h-73.143v-73.143h73.143v73.143zM630.571 555.213l-118.571-118.574v441.074h-73.143v-441.074l-118.571 118.574-51.714-51.717 206.857-206.857 206.857 206.857-51.714 51.717z" />
<glyph unicode="&#xe92d;" glyph-name="uE92D-comment" data-tags="uE92D-comment" d="M146.286-137.001v210.144h-146.286v731.429h950.857v-731.429h-571.109l-233.463-210.144z" />
<glyph unicode="&#xe92e;" glyph-name="uE92E-comment-add" data-tags="uE92E-comment-add" d="M1024 658.285v-585.143h-424.823l-233.463-210.144v210.144h-146.286v292.571h73.143v-219.429h146.286v-119.001l132.251 119.001h379.749v438.857h-438.857v73.143h512zM365.714 731.428h-146.286v146.286h-73.143v-146.286h-146.286v-73.143h146.286v-146.286h73.143v146.286h146.286v73.143z" />
<glyph unicode="&#xe92f;" glyph-name="uE92F-comment-discussion" data-tags="uE92F-comment-discussion" d="M292.571 877.714v-292.571h-292.571v-512h146.286v-210.144l233.463 210.144h351.68v214.103l146.286-131.673v210.142h146.286v512h-731.429zM658.286 146.285h-306.606l-132.251-119.001v119.001h-146.286v365.714h585.143v-365.714zM950.857 438.857h-146.286v-119.001l-73.143 65.817v199.47h-365.714v219.429h585.143v-365.714z" />
<glyph unicode="&#xe930;" glyph-name="uE930-comment-lines" data-tags="uE930-comment-lines" d="M146.286-137.001v210.144h-146.286v731.429h950.857v-731.429h-571.109l-233.463-210.144zM73.143 146.285h146.286v-119.001l132.251 119.001h526.034v585.143h-804.571v-585.143zM731.429 585.143h-512v-73.143h512v73.143zM585.143 438.857h-365.714v-73.143h365.714v73.143z" />
<glyph unicode="&#xe931;" glyph-name="uE931-comment-next" data-tags="uE931-comment-next" d="M507.024 621.714l-206.88-206.88-51.719 51.719 118.587 118.59h-367.013v73.143h367.013l-118.587 118.587 51.719 51.719 206.88-206.88zM658.286 658.285v-73.143h292.571v-438.857h-379.749l-132.251-119.001v119.001h-146.286v146.286h-73.143v-219.429h146.286v-210.144l233.463 210.144h424.823v585.143h-365.714z" />
<glyph unicode="&#xe932;" glyph-name="uE932-comment-outline" data-tags="uE932-comment-outline" d="M146.286-137.001v210.144h-146.286v731.429h950.857v-731.429h-571.109l-233.463-210.144zM73.143 146.285h146.286v-119.001l132.251 119.001h526.034v585.143h-804.571v-585.143z" />
<glyph unicode="&#xe933;" glyph-name="uE933-comment-previous" data-tags="uE933-comment-previous" d="M512 585.143h-367.931l118.583-118.587-51.714-51.721-206.88 206.88 206.88 206.88 51.717-51.721-118.585-118.587h367.931v-73.143zM658.286 658.285v-73.143h292.571v-438.857h-379.749l-132.251-119.001v119.001h-146.286v146.286h-73.143v-219.429h146.286v-210.144l233.463 210.144h424.823v585.143h-365.714z" />
<glyph unicode="&#xe934;" glyph-name="uE934-comment-urgent" data-tags="uE934-comment-urgent" d="M146.286-137.001v210.144h-146.286v731.429h950.857v-731.429h-571.109l-233.463-210.144zM73.143 146.285h146.286v-119.001l132.251 119.001h526.034v585.143h-804.571v-585.143zM512 658.285h-73.143v-292.571h73.143v292.571zM512 292.571h-73.143v-73.143h73.143v73.143z" />
<glyph unicode="&#xe935;" glyph-name="uE935-alert" data-tags="uE935-alert" d="M146.286 877.714h73.143v-1024h-73.143zM292.571 877.714v-585.143l658.286 292.571-658.286 292.571z" />
<glyph unicode="&#xe936;" glyph-name="uE936-approve" data-tags="uE936-approve" d="M1009.394 467.741c-27.691 38.629-59.611 44.258-81.486 44.258h-208.091c1.865 6.528 3.73 15.529 5.595 22.021 6.528 23.278 13.269 47.378 21.737 56.955 48.99 55.483 65.92 130.441 56.953 172.869-12.267 57.925-55.161 78.475-88.155 78.475-35.936 0-63.122-21.051-84.503-41.138l-283.73-289.182c-0.823-0.823-347.714 0-347.714 0v-585.143h800.583c43.326 0 81.63 27.616 95.186 68.645l120.917 370.213c13.337 57.655 3.872 87.771-7.291 102.027zM953.44 400.672l-127.319-381.929c-3.657-11.047-13.92-18.743-25.536-18.743h-508.014l1.234 438.857h34.827c26.827 0 52.041 7.687 71.017 26.661l283.726 283.726c25.216 23.605 42.601 28.793 48.846-0.64 4.037-19.010-5.6-69.861-40.167-109.033-27.497-31.166-33.678-80.169-49.349-125.097-14.697-42.133-14.907-65.678 2.203-75.616h282.994c8.754 0 16.713-6.802 21.806-13.904 5.166-7.102 6.53-15.959 3.733-24.281z" />
<glyph unicode="&#xe937;" glyph-name="uE937-approve-disapprove" data-tags="uE937-approve-disapprove" d="M1009.394 263.687c11.163 14.256 20.631 44.373 7.291 102.027l-120.914 370.213c-13.561 41.029-51.863 68.645-95.191 68.645h-800.581v-585.143s346.889 0.823 347.712 0l283.733-289.184c21.376-20.085 48.562-41.138 84.503-41.138 32.994 0 75.886 20.553 88.153 78.473 8.967 42.43-7.963 117.387-56.955 172.869-8.466 9.577-15.207 33.68-21.737 56.96-1.863 6.491-3.726 15.49-5.593 22.018h208.080c21.879 0 53.801 5.623 81.486 44.251zM949.714 306.475c-5.097-7.102-13.056-13.904-21.806-13.904h-282.994c-17.115-9.938-16.903-33.486-2.208-75.616 15.673-44.93 21.851-93.931 49.349-125.097 34.569-39.173 44.206-90.023 40.171-109.029-6.256-29.44-23.634-24.251-48.857-0.647l-283.73 283.726c-18.971 18.976-44.183 26.663-71.017 26.663h-34.816l-1.234 438.857h508.011c11.618 0 21.874-7.696 25.536-18.743l127.321-381.929c2.8-8.32 1.435-17.179-3.726-24.281z" />
<glyph unicode="&#xe938;" glyph-name="uE938-blur" data-tags="uE938-blur" d="M950.857 804.571v-73.143h-73.143v73.143h73.143zM658.286 804.571v-73.143h73.143v73.143h-73.143zM512 804.571h-73.143v-73.143h73.143v73.143zM365.714 804.571h-73.143v-73.143h73.143v73.143zM658.286 585.143v73.143h-73.143v-73.143h73.143zM804.571 585.143v73.143h-73.143v-73.143h73.143zM365.714 658.285h-73.143v-73.143h73.143v73.143zM658.286 292.571v73.143h-73.143v-73.143h73.143zM804.571 512h-73.143v-73.143h73.143v73.143zM438.857 585.143h73.143v73.143h-73.143v-73.143zM658.286 438.857v73.143h-73.143v-73.143h73.143zM438.857 438.857h73.143v73.143h-73.143v-73.143zM804.571 146.285v73.143h-73.143v-73.143h73.143zM731.429 292.571h73.143v73.143h-73.143v-73.143zM950.857 0v73.143h-73.143v-73.143h73.143zM950.857 146.285v73.143h-73.143v-73.143h73.143zM950.857 292.571v73.143h-73.143v-73.143h73.143zM146.286 804.571v-73.143h73.143v73.143h-73.143zM877.714 512h73.143v73.143h-73.143v-73.143zM73.143-73.143v877.714h-73.143v-950.857h950.857v73.143h-877.714zM146.286 658.285v73.143h-73.143v-73.143h73.143zM219.429 585.143v73.143h-73.143v-73.143h73.143zM292.571 512v73.143h-73.143v-73.143h73.143zM365.714 438.857v73.143h-73.143v-73.143h73.143zM438.857 365.714v73.143h-73.143v-73.143h73.143zM512 292.571v73.143h-73.143v-73.143h73.143zM585.143 219.428v73.143h-73.143v-73.143h73.143zM658.286 146.285v73.143h-73.143v-73.143h73.143zM731.429 73.143v73.143h-73.143v-73.143h73.143zM804.571 0v73.143h-73.143v-73.143h73.143zM877.714-73.143v73.143h-73.143v-73.143h73.143z" />
<glyph unicode="&#xe939;" glyph-name="uE939-build" data-tags="uE939-build" d="M692.224 604.999l-180.224-181.285-182.491 181.287 52.151 51.714 93.769-93.001 0.146 314h72.85l0.146-314 92.233 93.001 51.419-51.717zM365.714 365.714h-146.286v-146.286h146.286v146.286zM585.143 219.428h-146.286v146.286h146.286v-146.286zM804.571 219.428h-146.286v146.286h146.286v-146.286zM877.714 512v-365.714h-731.429v365.714h-73.143v-658.286h877.714v658.286h-73.143zM292.571-73.143v146.286h146.286v-146.286h-146.286zM585.143-73.143v146.286h146.286v-146.286h-146.286z" />
<glyph unicode="&#xe93a;" glyph-name="uE93A-build-queue" data-tags="uE93A-build-queue" d="M512 731.428v-219.429h-219.429v-219.429h-219.429v-438.857h438.857v219.429h219.429v219.429h219.429v438.857h-438.857zM438.857-73.143h-292.571v292.571h292.571v-292.571zM658.286 146.285h-146.286v146.286h-146.286v146.286h292.571v-292.571zM877.714 365.714h-146.286v146.286h-146.286v146.286h292.571v-292.571z" />
<glyph unicode="&#xe93b;" glyph-name="uE93B-build-reason-checkin-shelveset" data-tags="uE93B-build-reason-checkin-shelveset" d="M146.286 877.714h658.286v-73.143h-658.286v73.143zM830.464 391.46l-355.035 357.669-355.109-357.669 51.931-51.493 266.606 268.507v-754.761h73.143v754.761l266.679-268.507 51.785 51.493z" />
<glyph unicode="&#xe93c;" glyph-name="uE93C-calendar" data-tags="uE93C-calendar" d="M877.714 731.428v73.143h-73.143v-73.143h-585.143v73.143h-73.143v-73.143h-146.286v-877.714h1024v877.714h-146.286zM950.857-73.143h-877.714v512h877.714v-512zM73.143 512v146.286h73.143v-73.143h73.143v73.143h585.143v-73.143h73.143v73.143h73.143v-146.286h-877.714zM292.571 17.76v67.81c24-17.262 52-25.893 84-25.893 20.142 0 35.863 4.256 47.072 12.823 11.285 8.555 16.926 20.464 16.926 35.749 0 15.787-7.008 27.943-20.937 36.503-13.925 8.558-32.999 12.823-57.355 12.823h-33.289v59.68h30.789c46.64 0 70.002 15.291 70.002 45.865 0 28.782-17.929 43.161-53.792 43.161-24 0-47.291-7.653-70-22.939v63.63c25.211 12.503 54.574 18.743 88 18.743 36.718 0 65.211-8.144 85.646-24.418 20.427-16.274 30.645-37.413 30.645-63.378 0-46.185-23.719-75.143-71.282-86.811v-1.227c25.349-3.138 45.358-12.222 60-27.232 14.709-15.086 21.995-33.509 21.995-55.383 0-33.051-12.206-59.177-36.709-78.418-24.503-19.227-58.361-28.846-101.497-28.846-37.006 0-67.074 5.92-90.217 17.76zM731.429 365.714v-365.714h-73.143v276.905c-4.114-3.81-10.11-7.447-15.703-10.834-5.6-3.422-11.536-6.485-17.806-9.264-5.249-2.363-11.738-4.741-18.406-6.699-7.948-2.174-14.622-3.564-21.228-4.382v66.354c19.346 5.989 37.616 13.646 54.743 22.953 17.12 9.303 32.626 19.529 46.51 30.683h45.033z" />
<glyph unicode="&#xe93d;" glyph-name="uE93D-calendar-month" data-tags="uE93D-calendar-month" d="M804.571 731.428v73.143h-73.143v-73.143h-512v73.143h-73.143v-73.143h-146.286v-877.714h950.857v877.714h-146.286zM877.714-73.143h-804.571v512h804.571v-512zM73.143 512v146.286h73.143v-73.143h73.143v73.143h512v-73.143h73.143v73.143h73.143v-146.286h-804.571zM219.429 292.571h-73.143v73.143h73.143v-73.143zM365.714 292.571h-73.143v73.143h73.143v-73.143zM512 292.571h-73.143v73.143h73.143v-73.143zM658.286 292.571h-73.143v73.143h73.143v-73.143zM804.571 292.571h-73.143v73.143h73.143v-73.143zM219.429 146.285h-73.143v73.143h73.143v-73.143zM365.714 146.285h-73.143v73.143h73.143v-73.143zM512 146.285h-73.143v73.143h73.143v-73.143zM658.286 146.285h-73.143v73.143h73.143v-73.143zM804.571 146.285h-73.143v73.143h73.143v-73.143zM219.429 0h-73.143v73.143h73.143v-73.143zM365.714 0h-73.143v73.143h73.143v-73.143zM512 0h-73.143v73.143h73.143v-73.143z" />
<glyph unicode="&#xe93e;" glyph-name="uE93E-camera" data-tags="uE93E-camera" d="M1024-0.611h-1024v731.429h240.242l73.143 73.143h396.009l73.143-73.143h241.463v-731.429zM73.143 72.532h877.714v585.143h-198.615l-73.143 73.143h-335.417l-73.143-73.143h-197.397v-585.143zM512 145.675c-120.994 0-219.429 98.434-219.429 219.429s98.434 219.429 219.429 219.429 219.429-98.434 219.429-219.429-98.434-219.429-219.429-219.429zM512 511.389c-80.663 0-146.286-65.623-146.286-146.286s65.623-146.286 146.286-146.286 146.286 65.623 146.286 146.286-65.623 146.286-146.286 146.286zM256 584.532c-19.861 0-35.961-16.101-35.961-35.961s16.101-35.961 35.961-35.961 35.961 16.101 35.961 35.961-16.101 35.961-35.961 35.961z" />
<glyph unicode="&#xe93f;" glyph-name="uE93F-clone" data-tags="uE93F-clone" d="M746.571 658.285h-74.393l-218.537 219.429h-380.498v-804.571h292.571v-219.429h658.286v527.143l-277.429 277.429zM731.429 570l204.286-204.286h-204.286v204.286zM365.714 146.285h-219.429v658.286h277.783l147.182-146.286h-205.536v-512zM950.857-73.143h-512v658.286h219.429v-292.571h292.571v-365.714z" />
<glyph unicode="&#xe940;" glyph-name="uE940-cloud" data-tags="uE940-cloud" d="M543.438 658.285c121.541 0 220.069-100.288 220.069-224v-32h62.88c69.456 0 125.755-57.303 125.755-128 0-70.69-56.297-128-125.755-128h-565.897c-104.176 0-188.629 85.961-188.629 192s84.443 192 188.622 192c27.726 0 53.847-6.441 77.554-17.376 31.376 84.77 111.152 145.376 205.406 145.376zM543.442 731.428c-97.566 0-188.005-50.843-241.504-131.451-12.445 2.196-26.774 3.451-41.396 3.451-0.017 0-0.034 0-0.051 0-143.631 0-260.491-118.942-260.491-265.143s116.857-265.143 260.491-265.143h565.897c108.96 0 197.611 90.231 197.611 201.143 0 108.8-85.303 197.698-191.406 201.045-19.696 144.496-141.861 256.098-289.157 256.098z" />
<glyph unicode="&#xe941;" glyph-name="uE941-cloud-fill" data-tags="uE941-cloud-fill" d="M1024 219.428c0-80.793-65.49-146.286-146.286-146.286h-658.286c-121.189 0-219.429 98.24-219.429 219.429s98.24 219.429 219.429 219.429c32.251 0 62.638-7.365 90.217-19.863 36.487 96.887 129.289 166.149 238.926 166.149 141.383 0 256-114.619 256-256v-36.571h73.143c80.795 0 146.286-65.493 146.286-146.286z" />
<glyph unicode="&#xe942;" glyph-name="uE942-copy-to-clipboard" data-tags="uE942-copy-to-clipboard" d="M746.571 658.285h-74.393l-218.537 219.429h-380.498v-804.571h292.571v-219.429h658.286v527.143l-277.429 277.429zM731.429 570l204.286-204.286h-204.286v204.286zM365.714 146.285h-219.429v658.286h277.783l147.182-146.286h-205.536v-512zM950.857-73.143h-512v658.286h219.429v-292.571h292.571v-365.714z" />
<glyph unicode="&#xe943;" glyph-name="uE943-dashboard" data-tags="uE943-dashboard" d="M0 877.714v-1024h1024v1024h-1024zM73.143 804.571h512v-585.143h-512v585.143zM73.143-73.143v219.429h292.571v-219.429h-292.571zM950.857-73.143h-512v219.429h512v-219.429zM950.857 219.428h-292.571v292.571h292.571v-292.571zM950.857 585.143h-292.571v219.429h292.571v-219.429z" />
<glyph unicode="&#xe944;" glyph-name="uE944-dashboard-fill" data-tags="uE944-dashboard-fill" d="M585.143 219.428h-585.143v658.286h585.143v-658.286zM658.286 585.143h365.714v292.571h-365.714v-292.571zM658.286 219.428h365.714v292.571h-365.714v-292.571zM438.857-146.286h585.143v292.571h-585.143v-292.571zM365.714 146.285h-365.714v-292.571h365.714v292.571z" />
<glyph unicode="&#xe945;" glyph-name="uE945-database" data-tags="uE945-database" d="M757.995 837.737c-66.293 25.783-153.653 39.977-245.995 39.977s-179.703-14.194-245.995-39.977c-77.2-30.023-119.719-74.272-119.719-124.594v-694.857c0-50.322 42.519-94.571 119.719-124.594 66.293-25.783 153.653-39.977 245.995-39.977s179.703 14.194 245.995 39.977c77.2 30.023 119.719 74.27 119.719 124.594v694.857c0 50.322-42.519 94.571-119.719 124.594zM512 804.571c189.303 0 292.571-60.398 292.571-91.429s-103.269-91.429-292.571-91.429-292.571 60.398-292.571 91.429 103.269 91.429 292.571 91.429z" />
<glyph unicode="&#xe946;" glyph-name="uE946-deploy" data-tags="uE946-deploy" d="M658.286 877.714h-292.571v-292.571h292.571v292.571zM585.143 658.285h-146.286v146.286h146.286v-146.286zM292.571 585.143h-292.571v292.571h292.571v-292.571zM475.429 490.571l245.287-245.287-51.714-51.714-157.001 157.001v-496.857h-73.143v496.857l-157.001-157.001-51.714 51.714 245.287 245.287zM1024 877.714v-292.571h-292.571v292.571h292.571z" />
<glyph unicode="&#xe947;" glyph-name="uE947-redeploy" data-tags="uE947-redeploy" d="M292.571 585.143h-292.571v292.571h292.571v-292.571zM658.286 877.714h-292.571v-292.571h292.571v292.571zM731.429 877.714v-292.571h292.571v292.571h-292.571zM230.144 245.284l51.714-51.714 156.999 157.001v-496.857h73.143v496.857l157.001-157.001 51.714 51.714-245.287 245.287-245.285-245.287z" />
<glyph unicode="&#xe948;" glyph-name="uE948-details-pane" data-tags="uE948-details-pane" d="M0 877.714v-1024h1024v1024h-1024zM73.143-73.143v877.714h512v-877.714h-512zM950.857-73.143h-292.571v877.714h292.571v-877.714z" />
<glyph unicode="&#xe949;" glyph-name="uE949-edit" data-tags="uE949-edit" d="M301.984 0.537l-155.159 155.159 568.914 568.919 155.161-155.168-568.926-568.919zM223.369-78.076l-154.126 156.194-51.719-206.88 205.845 50.686zM974.341 672.896c42.846 42.846 42.846 112.313 0 155.159s-112.313 42.846-155.159 0l-25.861-25.861 156.194-154.126 24.823 24.827z" />
<glyph unicode="&#xe94a;" glyph-name="uE94A-edit-outline" data-tags="uE94A-edit-outline" d="M973.737 827.625c-66.862 66.779-175.703 66.789-242.576 0.018l-0.018 0.018-648.937-650.843-82.206-323.104 322.825 78.606 652.373 661.714c44.985 44.937 48.802 70.679 48.802 112.441 0 45.778-17.851 88.814-50.263 121.147zM101.57-43.406l41.614 166.117c61.559-14.789 109.867-63.147 124.434-124.709l-166.050-41.408zM193.678 185.005l508.357 507.771 136.709-136.473-508.686-508.069c-24.64 62.331-74.073 111.95-136.382 136.77zM920.907 638.137l-0.133 0.096-29.074-29.029-136.702 136.48 29.093 29.058 0.018-0.018c37.751 37.63 99.058 37.63 136.663 0 18.29-18.231 28.313-42.453 28.313-68.245 0-25.755-10.023-49.977-28.313-68.206l0.133-0.137z" />
<glyph unicode="&#xe94b;" glyph-name="uE94B-edit-copy" data-tags="uE94B-edit-copy" d="M746.571 658.285h-74.393l-218.537 219.429h-380.498v-804.571h292.571v-219.429h658.286v527.143l-277.429 277.429zM731.429 570l204.286-204.286h-204.286v204.286zM365.714 146.285h-219.429v658.286h277.783l147.182-146.286h-205.536v-512zM950.857-73.143h-512v658.286h219.429v-292.571h292.571v-365.714z" />
<glyph unicode="&#xe94c;" glyph-name="uE94C-edit-cut" data-tags="uE94C-edit-cut" d="M704 132.571c-2.469 0-4.773-0.594-7.205-0.727l-149.746 300.693 169.577 339.383-29.326 87.063-176.311-354.041-176.315 354.041-29.317-87.063 169.577-339.383-149.655-300.503c-1.79 0.073-3.474 0.537-5.28 0.537-73.109 0-132.571-59.465-132.571-132.571s59.463-132.571 132.571-132.571 132.571 59.465 132.571 132.571c0 48.32-26.256 90.249-64.976 113.417l123.392 246.953 123.822-247.813c-37.872-23.36-63.381-64.885-63.381-112.558 0-73.106 59.465-132.571 132.571-132.571s132.571 59.465 132.571 132.571-59.465 132.571-132.571 132.571zM320-59.429c-32.786 0-59.429 26.642-59.429 59.429s26.642 59.429 59.429 59.429 59.429-26.642 59.429-59.429-26.642-59.429-59.429-59.429zM704-59.429c-32.786 0-59.429 26.642-59.429 59.429s26.642 59.429 59.429 59.429 59.429-26.642 59.429-59.429-26.642-59.429-59.429-59.429z" />
<glyph unicode="&#xe94d;" glyph-name="uE94D-editor-list-bullet" data-tags="uE94D-editor-list-bullet" d="M877.714 658.285h-512v73.143h512v-73.143zM219.429 731.428h-73.143v-73.143h73.143v73.143zM877.714 512h-512v-73.143h512v73.143zM219.429 512h-73.143v-73.143h73.143v73.143zM877.714 292.571h-512v-73.143h512v73.143zM219.429 292.571h-73.143v-73.143h73.143v73.143zM877.714 73.143h-512v-73.143h512v73.143zM219.429 73.143h-73.143v-73.143h73.143v73.143z" />
<glyph unicode="&#xe94e;" glyph-name="uE94E-edit-paste" data-tags="uE94E-edit-paste" d="M804.571 438.857v292.571h-219.429c0 80.679-65.607 146.286-146.286 146.286s-146.286-65.607-146.286-146.286h-219.429v-804.571h365.714v-73.143h512v585.143h-146.286zM292.571 658.285h73.143v73.143c0 40.32 32.823 73.143 73.143 73.143s73.143-32.823 73.143-73.143v-73.143h73.143v-73.143h-292.571v73.143zM146.286 0v658.286h73.143v-146.286h438.857v146.286h73.143v-219.429h-292.571v-438.857h-292.571zM877.714-73.143h-365.714v438.857h365.714v-438.857z" />
<glyph unicode="&#xe94f;" glyph-name="uE94F-edit-delete" data-tags="uE94F-edit-delete" d="M615.438 365.714l313.995-313.995-103.438-103.438-313.995 313.995-313.995-313.995-103.44 103.438 313.998 313.995-313.995 313.995 103.44 103.44 313.993-313.998 313.995 313.995 103.438-103.44-313.995-313.993z" />
<glyph unicode="&#xe950;" glyph-name="uE950-edit-remove" data-tags="uE950-edit-remove" d="M921.858 723.856l-51.714 51.714-358.144-358.142-358.142 358.142-51.714-51.714 358.142-358.142-358.142-358.144 51.714-51.714 358.142 358.144 358.144-358.144 51.714 51.714-358.144 358.144z" />
<glyph unicode="&#xe951;" glyph-name="uE951-edit-redo" data-tags="uE951-edit-redo" d="M172.928 771.465c136.571 136.503 358.715 136.503 495.287 0l136.357-136.389v242.638h73.143v-365.714h-365.714v73.143h239.077l-134.574 134.606c-108.146 107.966-283.863 108-396.288-4.498-52.357-52.32-81.143-121.893-81.143-195.893s28.786-143.582 81.143-195.902l418.217-418.249-53.289-51.493-416.64 418.034c-66.149 66.149-102.574 154.073-102.574 247.611s36.425 181.463 106.999 252.103z" />
<glyph unicode="&#xe952;" glyph-name="uE952-edit-undo" data-tags="uE952-edit-undo" d="M777.929 771.465c-136.571 136.503-358.715 136.503-495.287 0l-136.357-136.389v242.638h-73.143v-365.714h365.714v73.143h-239.077l134.576 134.606c108.153 107.966 283.863 108 396.297-4.498 52.354-52.32 81.143-121.893 81.143-195.893s-28.789-143.582-81.143-195.902l-418.226-418.245 53.287-51.497 416.64 418.034c66.149 66.149 102.574 154.073 102.574 247.611s-36.425 181.463-106.999 252.103z" />
<glyph unicode="&#xe953;" glyph-name="uE953-edit-rename" data-tags="uE953-edit-rename" d="M512 294.852h-365.714v144.005h365.714v-144.005zM585.143 219.428h-512v292.571h512v73.143h-585.143v-438.857h585.143v73.143zM1024 585.143v-438.857h-219.429v73.143h146.286v292.571h-146.286v73.143h219.429zM731.429 678.546v-623.493c41.413-35.794 90.937-55.054 146.286-55.054v-73.143c-67.767 0-129.17 22.185-181.76 63.122-52.633-40.937-116.217-63.122-183.954-63.122v73.143c54.345 0 105.193 18.629 146.286 53.248v627.113c-41.113 34.617-91.97 51.067-146.286 51.067v73.143c67.707 0 131.305-20.011 183.961-60.96 52.626 40.951 114.016 60.96 181.753 60.96v-73.143c-55.314 0-104.846-17.079-146.286-52.882z" />
<glyph unicode="&#xe954;" glyph-name="uE954-attach" data-tags="uE954-attach" d="M804.571 731.428v-585.143c0-141.143-114.857-256-256-256s-256 114.857-256 256v512c0 100.823 82.034 182.857 182.857 182.857s182.857-82.034 182.857-182.857v-512c0-60.503-49.211-109.714-109.714-109.714s-109.714 49.211-109.714 109.714v438.857h73.143v-438.857c0-20.144 16.393-36.571 36.571-36.571s36.571 16.43 36.571 36.571v512c0 60.503-49.211 109.714-109.714 109.714s-109.714-49.211-109.714-109.714v-512c0-100.857 82-182.857 182.857-182.857s182.857 82 182.857 182.857v585.143h73.143z" />
<glyph unicode="&#xe955;" glyph-name="uE955-link" data-tags="uE955-link" d="M585.563 548.087c23.882-13.035 44.419-28.451 62.449-46.384 89.99-89.99 102.685-223.714 28.331-298.068l-301.486-301.502c-74.354-74.354-208.082-61.657-298.080 28.343s-102.715 223.726-28.359 298.096l150.126 150.126c-0.010-0.934-0.016-2.038-0.016-3.143 0-32.689 5.181-64.169 14.767-93.661l-110.472-107.737c-44.366-44.366-31.664-129.264 28.343-189.273s144.914-72.709 189.273-28.343l301.504 301.518c44.366 44.366 31.664 129.264-28.343 189.273-18.258 18.241-40.205 32.795-64.623 42.447zM496.306 241.211c-25.706 10.104-47.65 24.66-65.907 42.904-60.008 60.008-72.707 144.913-28.342 189.272l301.509 301.509c44.366 44.366 129.264 31.664 189.273-28.343s72.709-144.914 28.343-189.273l-109.867-109.867c8.984-27.351 14.165-58.83 14.165-91.519 0-1.105-0.006-2.208-0.018-3.31l150.118 150.274c74.354 74.354 61.657 208.082-28.343 298.080s-223.726 102.715-298.094 28.359l-301.509-301.509c-74.354-74.354-61.657-208.082 28.343-298.080 18.021-17.919 38.56-33.332 61.035-45.655z" />
<glyph unicode="&#xe956;" glyph-name="uE956-server" data-tags="uE956-server" d="M804.571-146.286h-585.143v950.857c0 40.322 32.821 73.143 73.143 73.143h438.857c40.357 0 73.143-32.821 73.143-73.143v-950.857zM292.571-73.143h438.857v877.714h-438.857v-877.714zM658.286 731.428h-292.571v-73.143h292.571v73.143zM658.286 219.428h-292.571v-73.143h292.571v73.143zM658.286 73.143h-292.571v-73.143h292.571v73.143z" />
<glyph unicode="&#xe957;" glyph-name="uE957-environment" data-tags="uE957-environment" d="M906.286 219.428h-101.714v587.321c0 39.143-31.856 70.965-70.999 70.965h-443.179c-39.143 0-70.965-31.822-70.965-70.965v-587.321h-101.714l-91.429-365.714h971.429l-91.429 365.714zM731.429 806.749v-733.607h-438.965l-2.071 731.429 441.035 2.178zM120-73.143l54.857 219.429h44.571v-146.286h585.143v146.286h44.571l54.857-219.429h-784zM658.286 658.285h-292.571v73.143h292.571v-73.143zM658.286 292.571h-292.571v73.143h292.571v-73.143zM658.286 146.285h-292.571v73.143h292.571v-73.143z" />
<glyph unicode="&#xe958;" glyph-name="uE958-devices" data-tags="uE958-devices" d="M1024 146.285v585.143h-950.857v-292.571h-73.143v-438.857h292.571v146.286h219.429v-73.143h-146.286v-73.143h365.714v73.143h-146.286v73.143h438.857zM219.429 73.143h-146.286v292.571h146.286v-292.571zM292.571 219.428v219.429h-146.286v219.429h804.571v-438.857h-658.286z" />
<glyph unicode="&#xe959;" glyph-name="uE959-feedback-negative" data-tags="uE959-feedback-negative" d="M512 877.714c-282.766 0-512-229.223-512-512 0-282.773 229.234-512 512-512 282.773 0 512 229.227 512 512 0 282.777-229.227 512-512 512zM704 557.714c35.349 0 64-28.656 64-64 0-35.337-28.651-64-64-64-35.344 0-64 28.663-64 64 0 35.344 28.656 64 64 64zM320 557.714c35.349 0 64-28.656 64-64 0-35.337-28.651-64-64-64-35.344 0-64 28.663-64 64 0 35.344 28.656 64 64 64zM717.001 74.141c-39.465 78.926-118 127.931-205.001 127.931-87.035 0-165.573-49.006-205.001-127.931l-65.429 32.715c51.893 103.858 155.497 168.357 270.43 168.357 114.894 0 218.501-64.503 270.43-168.357l-65.429-32.715z" />
<glyph unicode="&#xe95a;" glyph-name="uE95A-feedback-positive" data-tags="uE95A-feedback-positive" d="M512 877.714c-282.766 0-512-229.223-512-512 0-282.773 229.234-512 512-512 282.773 0 512 229.227 512 512 0 282.777-229.227 512-512 512zM704 557.714c35.349 0 64-28.656 64-64 0-35.337-28.651-64-64-64-35.344 0-64 28.663-64 64 0 35.344 28.656 64 64 64zM320 557.714c35.349 0 64-28.656 64-64 0-35.337-28.651-64-64-64-35.344 0-64 28.663-64 64 0 35.344 28.656 64 64 64zM512 53.929c-114.926 0-218.537 64.503-270.43 168.357l65.429 32.715c39.429-78.926 117.966-127.931 205.001-127.931s165.573 49.006 205.001 127.931l65.429-32.715c-51.893-103.858-155.504-168.357-270.43-168.357z" />
<glyph unicode="&#xe95b;" glyph-name="uE95B-folder" data-tags="uE95B-folder" d="M598.784 658.285l-144.786 146.286h-453.998v-877.714h1024v731.429h-425.216z" />
<glyph unicode="&#xe95c;" glyph-name="uE95C-image" data-tags="uE95C-image" d="M877.714 548.571c0-60.594-49.12-109.714-109.714-109.714s-109.714 49.12-109.714 109.714 49.12 109.714 109.714 109.714 109.714-49.12 109.714-109.714zM1024 804.571v-950.857h-1024v950.857h1024zM950.857 731.428h-877.714v-533.429l219.429 219.429 365.714-365.714 146.286 146.286 146.286-146.286v679.714z" />
<glyph unicode="&#xe95d;" glyph-name="uE95D-package" data-tags="uE95D-package" d="M741.943 658.285c47.131 72.027 19.755 129.074 1.701 153.822-18.217 25.001-49.143 42.217-84.786 47.25-39.714 5.6-80.215-4.544-110.571-28.046-26.754-20.722-52.823-68.263-72.862-112.114-20.046 43.856-46.135 91.406-72.923 112.149-31.287 24.224-74.501 34.51-115.575 27.865-34.784-5.783-64.213-23.497-80.784-48.606-12.953-19.767-41.897-79.285 4-152.32h-210.142v-804.571h950.857v804.571h-208.914zM593.074 773.499c14.784 11.392 34.64 16.251 55.57 13.463 15.714-2.247 29.499-9.143 35.931-17.961 22.64-31.001 9.497-68.215-39.003-110.715h-116.928c21.714 52.178 47.856 102.354 64.427 115.214zM267.287 770.427c5.143 7.858 17.287 14.249 31.643 16.64 21.714 3.394 43.36-1.605 58.789-13.531 16.64-12.859 42.784-63.074 64.498-115.253h-116.857c-34.217 30.315-64.434 72.030-38.073 112.137zM438.857-73.143h-365.714v292.571h365.714v-292.571zM438.857 292.571h-365.714v292.571h365.714v-292.571zM877.714-73.143h-365.714v292.571h365.714v-292.571zM877.714 292.571h-365.714v292.571h365.714v-292.571z" />
<glyph unicode="&#xe95e;" glyph-name="uE95E-package-fill" data-tags="uE95E-package-fill" d="M0 219.428h438.857v-365.714h-438.857v365.714zM512-146.286h438.857v365.714h-438.857v-365.714zM950.857 658.285v-365.714h-438.857v365.714h-73.143v-365.714h-438.857v365.714h210.139c-45.897 73.033-16.955 132.558-3.993 152.32 16.567 25.111 46 42.825 80.779 48.61 41.077 6.642 84.29-3.643 115.573-27.867 26.793-20.743 52.882-68.293 72.923-112.151 20.041 43.849 46.11 91.392 72.864 112.114 30.354 23.509 70.853 33.646 110.569 28.043 35.643-5.033 66.567-22.242 84.786-47.25 18.055-24.745 45.431-81.797-1.703-153.819h208.919zM422.217 658.285c-21.717 52.181-47.858 102.393-64.498 115.25-15.433 11.929-37.077 16.926-58.793 13.531-14.35-2.391-26.501-8.784-31.641-16.64v-0.007c-26.359-40.112 3.856-81.824 38.080-112.135h116.853zM684.574 769.001c-6.43 8.821-20.217 15.719-35.927 17.963-20.933 2.786-40.791-2.071-55.566-13.465h-0.007c-16.576-12.857-42.718-63.033-64.434-115.214h116.933c48.503 42.503 61.639 79.712 39.001 110.715z" />
<glyph unicode="&#xe95f;" glyph-name="uE95F-heart" data-tags="uE95F-heart" d="M512-72.179l-434 423.36c-103.714 103.813-103.714 272.174-0.286 375.634 100.215 100.251 275.001 100.32 375.36 0l58.926-63.49 58 62.498c102.144 102.32 276 101.25 376.286 0.999 103.429-103.465 103.429-271.822 0-375.321l-434.286-423.675zM265.429 731.428c-51.429 0-99.714-20-136-56.32-74.926-74.967-74.926-196.93 0-271.895l382.571-373.179 382.857 373.502c74.642 74.642 74.642 196.608-0.286 271.573-72.43 72.535-199.214 72.679-271.931 0l-110.64-119.36-111.573 120.359c-35.353 35.321-83.641 55.321-134.999 55.321z" />
<glyph unicode="&#xe960;" glyph-name="uE960-heart-fill" data-tags="uE960-heart-fill" d="M512-72.179l-434 423.36c-103.714 103.813-103.714 272.174-0.286 375.634 100.215 100.251 275.001 100.32 375.36 0l58.926-63.49 58 62.498c102.144 102.32 276 101.25 376.286 0.999 103.429-103.465 103.429-271.822 0-375.321l-434.286-423.675z" />
<glyph unicode="&#xe961;" glyph-name="uE961-heartbeat" data-tags="uE961-heartbeat" d="M804.571 219.428h6.313l-298.885-291.607-433.929 423.36c-4.503 4.503-7.822 9.778-11.959 14.533h62.734l161.582 177.303 220.464-199.84 147.394 147.394 124.857-124.857h72.946l38.766 37.822c36 36 56 84.286 56 135.643 0 51.33-20 99.611-56.32 135.931-72.686 72.64-199.291 72.64-271.902 0l-110.633-119.362-111.607 120.359c-35.36 35.321-83.643 55.321-134.999 55.321-51.323 0-99.611-20-135.931-56.32s-56.32-84.61-56.32-135.931c0-36.064 10.37-70.363 28.823-100.32h-82.263c-12.462 29.628-19.703 64.067-19.703 100.196 0 0.043 0 0.087 0 0.13 0 70.889 27.607 137.532 77.751 187.639 100.215 100.286 275.035 100.286 375.321 0l58.928-63.502 57.966 62.501c102.213 102.286 276.069 101.287 376.283 1.001 50.144-50.11 77.751-116.754 77.751-187.646s-27.607-137.531-77.751-187.675l-60.398-58.93h-132.994l-94.571 94.571-145.179-145.179-218.393 200.169-97.2-105.312 314.487-306.786 194.139 189.394h98.432z" />
<glyph unicode="&#xe962;" glyph-name="uE962-heartbeat-fill" data-tags="uE962-heartbeat-fill" d="M885.883 292.571l-373.883-364.75-380.613 371.28 161.184 161.184 219.429-219.429 146.286 146.286 94.571-94.571h133.029zM957.531 365.714c90.693 104.144 87.808 262.023-11.246 361.106-100.286 100.251-274.144 101.321-376.286-1.001l-58-62.498-58.926 63.497c-100.359 100.325-275.145 100.251-375.36 0-103.429-103.463-103.429-271.817 0.286-375.641l1.029-1.006 213.543 213.545 219.429-219.429 146.286 146.286 124.857-124.859h174.389z" />
<glyph unicode="&#xe963;" glyph-name="uE963-mail-message" data-tags="uE963-mail-message" d="M0 731.428v-731.429h1024v731.429h-1024zM901.733 658.285l-389.733-263.106-389.733 263.106h779.465zM950.857 73.143h-877.714v530.048l438.857-296.229 438.857 296.229v-530.048z" />
<glyph unicode="&#xe964;" glyph-name="uE964-mail-message-fill" data-tags="uE964-mail-message-fill" d="M512 402.089l-487.883 329.339h975.767l-487.883-329.339zM512 313.874l-512 345.573v-659.447h1024v659.447l-512-345.573z" />
<glyph unicode="&#xe965;" glyph-name="uE965-math-minus" data-tags="uE965-math-minus" d="M950.857 438.857v-146.286h-877.714v146.286h877.714z" />
<glyph unicode="&#xe966;" glyph-name="uE966-math-minus-light" data-tags="uE966-math-minus-light" d="M950.857 292.571h-950.857v73.143h950.857v-73.143z" />
<glyph unicode="&#xe967;" glyph-name="uE967-math-minus-box-light" data-tags="uE967-math-minus-box-light" d="M0 804.571v-950.857h950.857v950.857h-950.857zM731.429 292.571h-512v73.143h512v-73.143z" />
<glyph unicode="&#xe968;" glyph-name="uE968-math-minus-box" data-tags="uE968-math-minus-box" d="M0 877.714v-1024h1024v1024h-1024zM804.571 292.571h-585.143v146.286h585.143v-146.286z" />
<glyph unicode="&#xe969;" glyph-name="uE969-math-minus-circle-outline" data-tags="uE969-math-minus-circle-outline" d="M475.429-73.143c-262.142 0-475.429 213.285-475.429 475.429s213.287 475.429 475.429 475.429 475.429-213.287 475.429-475.429-213.285-475.429-475.429-475.429zM475.429 804.571c-221.822 0-402.286-180.464-402.286-402.286 0-221.783 180.464-402.286 402.286-402.286 221.783 0 402.286 180.503 402.286 402.286 0 221.822-180.503 402.286-402.286 402.286zM731.429 438.857h-512v-73.143h512v73.143z" />
<glyph unicode="&#xe96a;" glyph-name="uE96A-math-minus-circle" data-tags="uE96A-math-minus-circle" d="M512 877.714c-282.309 0-512-229.691-512-512s229.691-512 512-512 512 229.691 512 512-229.691 512-512 512zM804.571 292.571h-585.143v146.286h585.143v-146.286z" />
<glyph unicode="&#xe96b;" glyph-name="uE96B-math-multiply" data-tags="uE96B-math-multiply" d="M615.438 365.714l313.995-313.995-103.438-103.438-313.995 313.995-313.995-313.995-103.44 103.438 313.998 313.995-313.995 313.995 103.44 103.44 313.993-313.998 313.995 313.995 103.438-103.44-313.995-313.993z" />
<glyph unicode="&#xe96c;" glyph-name="uE96C-math-multiply-light" data-tags="uE96C-math-multiply-light" d="M921.858 723.856l-51.714 51.714-358.144-358.142-358.142 358.142-51.714-51.714 358.142-358.142-358.142-358.144 51.714-51.714 358.142 358.144 358.144-358.144 51.714 51.714-358.144 358.144z" />
<glyph unicode="&#xe96d;" glyph-name="uE96D-math-multiply-box-light" data-tags="uE96D-math-multiply-box-light" d="M0 804.571v-950.857h950.857v950.857h-950.857zM720.715 135.57l-51.714-51.714-193.573 193.573-193.573-193.573-51.714 51.714 193.573 193.573-193.573 193.573 51.714 51.714 193.573-193.573 193.573 193.573 51.714-51.714-193.573-193.573 193.573-193.573z" />
<glyph unicode="&#xe96e;" glyph-name="uE96E-math-multiply-box" data-tags="uE96E-math-multiply-box" d="M0 877.714v-1024h1024v1024h-1024zM801.429 179.714l-103.429-103.429-186 186-186-186-103.429 103.429 186 186-186 186 103.429 103.429 186-186 186 186 103.429-103.429-186-186 186-186z" />
<glyph unicode="&#xe96f;" glyph-name="uE96F-math-multiply-box-outline" data-tags="uE96F-math-multiply-box-outline" d="M950.857-73.143h-950.857v950.857h950.857v-950.857zM73.143 0h804.571v804.571h-804.571v-804.571zM739.001 614.141l-51.714 51.714-211.858-211.856-211.858 211.858-51.714-51.714 211.858-211.858-211.858-211.858 51.714-51.714 211.858 211.858 211.858-211.858 51.714 51.714-211.858 211.858 211.858 211.856z" />
<glyph unicode="&#xe970;" glyph-name="uE970-math-plus" data-tags="uE970-math-plus" d="M950.857 438.857v-146.286h-365.714v-365.714h-146.286v365.714h-365.714v146.286h365.714v365.714h146.286v-365.714h365.714z" />
<glyph unicode="&#xe971;" glyph-name="uE971-math-plus-light" data-tags="uE971-math-plus-light" d="M950.857 292.571h-438.857v-438.857h-73.143v438.857h-438.857v73.143h438.857v438.857h73.143v-438.857h438.857v-73.143z" />
<glyph unicode="&#xe972;" glyph-name="uE972-math-plus-box-light" data-tags="uE972-math-plus-box-light" d="M0 804.571v-950.857h950.857v950.857h-950.857zM731.429 292.571h-219.429v-219.429h-73.143v219.429h-219.429v73.143h219.429v219.429h73.143v-219.429h219.429v-73.143z" />
<glyph unicode="&#xe973;" glyph-name="uE973-math-plus-box" data-tags="uE973-math-plus-box" d="M0 877.714v-1024h1024v1024h-1024zM804.571 292.571h-219.429v-219.429h-146.286v219.429h-219.429v146.286h219.429v219.429h146.286v-219.429h219.429v-146.286z" />
<glyph unicode="&#xe974;" glyph-name="uE974-math-plus-circle-outline" data-tags="uE974-math-plus-circle-outline" d="M475.429-73.143c-262.142 0-475.429 213.285-475.429 475.429s213.287 475.429 475.429 475.429 475.429-213.287 475.429-475.429-213.285-475.429-475.429-475.429zM475.429 804.571c-221.822 0-402.286-180.464-402.286-402.286 0-221.783 180.464-402.286 402.286-402.286 221.783 0 402.286 180.503 402.286 402.286 0 221.822-180.503 402.286-402.286 402.286zM731.429 438.857h-219.429v219.429h-73.143v-219.429h-219.429v-73.143h219.429v-219.429h73.143v219.429h219.429v73.143z" />
<glyph unicode="&#xe975;" glyph-name="uE975-math-plus-circle" data-tags="uE975-math-plus-circle" d="M512 877.714c-282.309 0-512-229.691-512-512s229.691-512 512-512 512 229.691 512 512-229.691 512-512 512zM804.571 292.571h-219.429v-219.429h-146.286v219.429h-219.429v146.286h219.429v219.429h146.286v-219.429h219.429v-146.286z" />
<glyph unicode="&#xe976;" glyph-name="uE976-math-plus-heavy" data-tags="uE976-math-plus-heavy" d="M950.857 438.857v-146.286h-365.714v-365.714h-146.286v365.714h-365.714v146.286h365.714v365.714h146.286v-365.714h365.714z" />
<glyph unicode="&#xe977;" glyph-name="uE977-check" data-tags="uE977-check" d="M365.714-30.297l-344.29 344.293 103.44 103.438 240.85-240.85 533.424 533.422 103.438-103.44-636.862-636.862z" />
<glyph unicode="&#xe978;" glyph-name="uE978-check-light" data-tags="uE978-check-light" d="M353.536-2.926l-342.821 342.779 51.714 51.714 291.109-291.063 608.032 608.027 51.714-51.714-659.749-659.749z" />
<glyph unicode="&#xe979;" glyph-name="uE979-feed" data-tags="uE979-feed" d="M365.714 109.714c0-60.594-49.12-109.714-109.714-109.714s-109.714 49.12-109.714 109.714 49.12 109.714 109.714 109.714 109.714-49.12 109.714-109.714zM482.537 336.251c-89.749 89.751-209.166 139.177-336.251 139.177v-73.143c221.822 0 402.286-180.464 402.286-402.286h73.143c0 127.086-49.426 246.505-139.177 336.251zM637.737 491.451c-131.177 131.166-305.707 203.406-491.451 203.406v-73.143c342.811 0 621.714-278.903 621.714-621.714h73.143c0 185.746-72.238 360.279-203.406 491.451z" />
<glyph unicode="&#xe97a;" glyph-name="uE97A-network-tower" data-tags="uE97A-network-tower" d="M341.001 394.605c-54.034 48.539-85.001 117.966-85.001 190.503 0 72.75 31.109 142.286 85.321 190.821l48.786-54.507c-38.747-34.672-60.965-84.347-60.965-136.318 0-51.783 22.144-101.394 60.715-136.069l-48.857-54.427zM682.642 394.354c54.286 48.503 85.358 118.005 85.358 190.754 0 72.535-31.001 142-85.001 190.537l-48.857-54.434c38.574-34.674 60.715-84.283 60.715-136.105 0-51.931-22.217-101.607-60.928-136.251l48.713-54.498zM260.393 329.821c-73.573 67.070-114.107 157.646-114.107 255.001 0 89.817 35.25 175.314 99.287 240.709l-52.286 51.147c-77.463-79.143-120.144-182.789-120.144-291.856 0-118.181 49.001-227.966 137.966-309.038l49.285 54.034zM763.429 329.714l49.287-54.071c87.787 79.893 138.142 192.571 138.142 309.179 0 109.175-42.713 212.891-120.286 292.032l-52.286-51.209c64.144-65.362 99.429-150.898 99.429-240.823 0-97.463-40.571-188.037-114.286-255.109zM402.286 585.106c0 60.503 49.211 109.714 109.714 109.714s109.714-49.211 109.714-109.714c0-42.743-24.809-79.451-60.558-97.554l253.518-633.838h-78.72l-58.526 146.286h-330.83l-58.519-146.286h-78.789l253.554 633.84c-35.749 18.103-60.56 54.811-60.56 97.554zM618.903 146.285h-213.783l-29.262-73.143h272.309l-29.264 73.143zM512 413.49l-77.623-194.062h155.262l-77.639 194.062zM475.429 585.106c0-20.178 16.393-36.571 36.571-36.571s36.571 16.393 36.571 36.571-16.393 36.571-36.571 36.571-36.571-16.393-36.571-36.571z" />
<glyph unicode="&#xe97b;" glyph-name="uE97B-connect-to-feed" data-tags="uE97B-connect-to-feed" d="M585.143 0c0-40.393-32.75-73.143-73.143-73.143s-73.143 32.75-73.143 73.143 32.75 73.143 73.143 73.143 73.143-32.75 73.143-73.143zM365.714 658.285v-182.857c0-88.297-62.926-162.165-146.286-179.154v-369.417h-73.143v369.417c-83.36 16.987-146.286 90.857-146.286 179.154v182.857h73.143v146.286h73.143v-146.286h73.143v146.286h73.143v-146.286h73.143zM292.571 585.143h-219.429v-109.714c0-60.503 49.211-109.714 109.714-109.714s109.714 49.211 109.714 109.714v109.714zM438.857 543.874v-73.906c292.571-35.934 512-265.465 512-543.111h73.143c0 318-219.429 580.647-585.143 617.017zM438.857 327.289v-74.994c164.121-18.469 292.571-156.471 292.571-325.449h73.143c0 209.44-161.017 381.865-365.714 400.434z" />
<glyph unicode="&#xe97c;" glyph-name="uE97C-plug" data-tags="uE97C-plug" d="M731.429 658.285v-256c0-128.969-95.367-235.641-219.429-253.387v-295.184h-73.143v295.184c-124.062 17.746-219.429 124.418-219.429 253.387v256h73.143v219.429h73.143v-219.429h219.429v219.429h73.143v-219.429h73.143z" />
<glyph unicode="&#xe97d;" glyph-name="uE97D-plug-outline" data-tags="uE97D-plug-outline" d="M658.286 658.285v219.429h-73.143v-219.429h-219.429v219.429h-73.143v-219.429h-73.143v-292.571c0-128.743 95.534-235.575 219.429-253.376v-258.624h73.143v258.624c123.895 17.801 219.429 124.633 219.429 253.376v292.571h-73.143zM475.429 182.857c-100.827 0-182.857 82.030-182.857 182.857v219.429h365.714v-219.429c0-100.827-82.030-182.857-182.857-182.857z" />
<glyph unicode="&#xe97e;" glyph-name="uE97E-policy" data-tags="uE97E-policy" d="M841.143 550.647c0 181.499-147.646 329.143-329.143 329.143-181.499 0-329.143-147.643-329.143-329.143 0-96.898 42.866-183.25 109.714-243.536v-455.607l219.429 109.714 219.429-109.714v455.607c66.846 60.286 109.714 146.64 109.714 243.536zM256 550.647c0 141.143 114.857 256 256 256s256-114.857 256-256-114.857-256-256-256-256 114.857-256 256zM658.286-30.208l-146.286 73.143-146.286-73.143v287.557c44.267-22.187 93.49-35.845 146.286-35.845s102.018 13.657 146.286 35.845v-287.557zM512 367.789c100.857 0 182.857 82.037 182.857 182.857s-82 182.857-182.857 182.857-182.857-82.037-182.857-182.857 82-182.857 182.857-182.857zM512 660.361c60.501 0 109.714-49.214 109.714-109.714s-49.214-109.714-109.714-109.714-109.714 49.214-109.714 109.714 49.214 109.714 109.714 109.714z" />
<glyph unicode="&#xe97f;" glyph-name="uE97F-print" data-tags="uE97F-print" d="M1024 329.143c0 60.571-49.143 109.714-109.714 109.714h-109.714v438.857h-585.143v-438.857h-109.714c-60.571 0-109.714-49.143-109.714-109.714v-329.143h219.429v-146.286h585.143v146.286h219.429v329.143zM292.571 804.571h438.857v-365.714h-438.857v365.714zM731.429-73.143h-438.857v146.286h438.857v-146.286zM950.857 73.143h-146.286v73.143h-585.143v-73.143h-146.286v256c0 20.114 16.457 36.571 36.571 36.571h804.571c20.114 0 36.571-16.457 36.571-36.571v-256zM146.286 292.571h73.143v-73.143h-73.143v73.143z" />
<glyph unicode="&#xe980;" glyph-name="uE980-recycle" data-tags="uE980-recycle" d="M962.286 87.085l-53.486 84.8-61.943-39.314 37.486-59.429h-348.8l66.971 66.971-51.657 51.657-155.2-155.2 155.2-155.2 51.657 51.657-66.971 66.971h378.743c23.314 0 42.286 10.286 52.114 28.114 9.829 17.6 8.229 39.086-4.114 58.971zM512 662.857l202.743-321.143-100.114 15.086-10.971-72.229 216.914-32.686 32.686 216.914-72.229 10.971-12.8-85.486-194.286 307.657c-13.486 21.486-36.8 34.057-61.943 34.057s-48.457-12.8-61.943-34.057l-61.486-97.371 61.943-39.086 61.486 97.371zM337.371 248.685l69.257 23.543-49.371 145.6 0.914 1.6-2.057 1.143-20.114 59.429-207.771-70.4 23.543-69.257 88.914 30.171-178.971-283.429c-12.343-19.657-13.943-41.143-4.114-58.971s28.8-28.114 52.114-28.114h182.857v73.143h-153.143l167.314 265.143 30.629-89.6z" />
<glyph unicode="&#xe981;" glyph-name="uE981-robot" data-tags="uE981-robot" d="M841.143 146.285h-182.857v73.143h51.214c53.287 0 95.072 56.215 95.072 128v18.286h73.143v146.286h-73.143v18.286c0 71.785-41.785 128-95.072 128h-197.499v84.352c21.47 12.741 36.571 35.157 36.571 61.934 0 40.398-32.745 73.143-73.143 73.143s-73.143-32.745-73.143-73.143c0-26.777 15.102-49.191 36.571-61.934v-84.352h-197.499c-53.321 0-95.072-56.215-95.072-128v-18.286h-73.143v-146.286h73.143v-18.286c0-71.785 41.751-128 95.072-128h51.214v-73.143h-182.857c-60.501 0-109.714-41.929-109.714-93.429v-199.143h73.143v199.143c0 8.071 14.571 20.286 36.571 20.286h731.429c22 0 36.571-12.215 36.571-20.286v-199.143h73.143v199.143c0 51.499-49.214 93.429-109.714 93.429zM241.358 292.571c-5.465 0-21.929 19.465-21.929 54.857v182.857c0 35.392 16.464 54.857 21.929 54.857h468.144c5.429 0 21.929-19.465 21.929-54.857v-182.857c0-35.392-16.501-54.857-21.929-54.857h-468.144zM365.714 146.285v73.143h219.429v-73.143h-219.429zM365.714 438.857h-73.143v73.143h73.143v-73.143zM658.286 438.857h-73.143v73.143h73.143v-73.143z" />
<glyph unicode="&#xe982;" glyph-name="uE982-save" data-tags="uE982-save" d="M512-146.286h-146.286v219.429h146.286v-219.429zM1024-146.286h-219.429v365.714h-585.143v-365.714h-73.143l-146.286 146.286v877.71h1024v-1023.995zM877.714 438.857v292.571h-731.429v-292.571h731.429z" />
<glyph unicode="&#xe983;" glyph-name="uE983-save-all" data-tags="uE983-save-all" d="M219.429-73.143h73.143v-73.143h-73.143v73.143zM73.143 219.428v146.286h292.571v73.143h-365.714v-512l73.143-73.143h73.143v146.286h292.571v-146.286h146.286v365.714h-512zM658.286 365.714v-73.143h73.143v73.143h-73.143zM438.857 877.714v-512l73.143-73.143h73.143v146.286h292.571v-146.286h146.286v585.143h-585.143zM950.857 658.285h-438.857v146.286h438.857v-146.286z" />
<glyph unicode="&#xe984;" glyph-name="uE984-save-as" data-tags="uE984-save-as" d="M438.857 0h146.286v-146.286h-146.286v146.286zM196.937 315.063l-1.367-1.367-195.57-47.143 54.249 189.643 0.777 0.777 141.911-141.911zM562.651 680.777l26.633 26.633c18.965 18.928 29.392 44.144 29.392 70.928s-10.43 52-29.358 70.928c-37.929 37.929-104.037 37.929-141.893 0l-26.638-26.629 141.863-141.861zM347.639 749.504l-219.461-219.397 141.902-141.902 219.429 219.429-141.87 141.87zM731.429 731.428l-73.143-73.143h219.429v-219.429h-438.857l-292.571-274.286v-201.143l109.714-109.714h109.714v292.571h438.857v-292.571h219.429v877.714h-292.571z" />
<glyph unicode="&#xe985;" glyph-name="uE985-save-close" data-tags="uE985-save-close" d="M438.857 0h146.286v-146.286h-146.286v146.286zM520.857 731.428l-73.143-73.143h430v-219.429h-263.314l-164.827-165.858-193.573 193.573-109.714-109.714v-393.429l109.714-109.714h109.714v292.571h438.857v-292.571h219.429v877.714h-503.143zM501.287 815.284l-51.714 51.714-193.573-193.57-193.57 193.57-51.714-51.714 193.57-193.57-193.57-193.573 51.714-51.714 193.57 193.573 193.573-193.573 51.714 51.714-193.573 193.573 193.573 193.57z" />
<glyph unicode="&#xe986;" glyph-name="uE986-search" data-tags="uE986-search" d="M670.501 877.714c-194.926 0-353.536-158.606-353.536-353.536 0-84.258 30.862-160.686 80.251-221.495l-386.496-386.542c-14.286-14.286-14.286-37.429 0-51.714 7.138-7.143 16.494-10.713 25.851-10.713s18.715 3.573 25.858 10.715l386.496 386.53c60.823-49.433 137.28-80.32 221.577-80.32 194.926 0 353.497 158.61 353.497 353.538s-158.571 353.536-353.499 353.536zM670.501 243.785c-154.606 0-280.393 125.783-280.393 280.393s125.783 280.393 280.393 280.393c154.574 0 280.357-125.783 280.357-280.393s-125.783-280.393-280.357-280.393z" />
<glyph unicode="&#xe987;" glyph-name="uE987-search-filter" data-tags="uE987-search-filter" d="M658.286-146.286h-292.571v427.643l-365.714 405.070v118.144h1024v-118.144l-365.714-405.070v-427.643zM438.857-73.143h146.286v382.608l365.714 405.106v16.857h-877.714v-16.857l365.714-405.106v-382.608z" />
<glyph unicode="&#xe988;" glyph-name="uE988-search-filter-fill" data-tags="uE988-search-filter-fill" d="M658.286-146.286h-292.571v427.57l-365.714 405.143v118.144h1024v-118.144l-365.714-405.143v-427.57z" />
<glyph unicode="&#xe989;" glyph-name="uE989-security" data-tags="uE989-security" d="M512-115.353l-18.286 10.496c-271.214 156.283-420.571 364.215-420.571 585.429v242.782h36.571c90.425 0 174.928 23.858 237.927 67.145 86.857 64.718 240.713 65.499 329.861-0.782 61.856-42.503 146.357-66.363 236.784-66.363h36.571v-242.782c0-221.214-149.358-429.143-420.571-585.429l-18.286-10.496z" />
<glyph unicode="&#xe98a;" glyph-name="uE98A-security-access" data-tags="uE98A-security-access" d="M1024-146.286h-263.365v126.784h-126.784v126.784h-126.784v99.255c-47.947-23.598-100.041-35.897-153.531-35.897-194.93 0-353.536 158.606-353.536 353.536s158.606 353.538 353.538 353.538 353.538-158.606 353.538-353.538c0-32.069-4.791-64-14.587-96.965l331.511-331.584v-241.913zM833.858-73.061h116.914v138.368l-342.453 342.491 7.87 21.845c11.87 32.921 17.662 63.847 17.662 94.526 0 154.565-125.751 280.313-280.315 280.313s-280.311-125.739-280.311-280.306 125.746-280.313 280.313-280.313c59.602 0 117.202 19.378 166.578 56.137l9.737 7.223h48.731l1.714-36.617v-90.098h126.784v-126.784h126.784v-126.784zM255.714 686.071c-35.387 0-64.069-28.686-64.069-64.069 0-35.39 28.686-64.073 64.069-64.073s64.069 28.686 64.069 64.069c0 35.387-28.681 64.073-64.069 64.073z" />
<glyph unicode="&#xe98b;" glyph-name="uE98B-security-lock" data-tags="uE98B-security-lock" d="M658.286 438.857v219.429c0 133.287-86.144 219.429-219.429 219.429s-219.429-86.144-219.429-219.429v-219.429h-146.286v-585.143h731.429v585.143h-146.286zM292.571 658.285c0 92.965 53.321 146.286 146.286 146.286s146.286-53.321 146.286-146.286v-219.429h-292.571v219.429zM731.429-73.143h-585.143v438.857h585.143v-438.857zM475.47 157.522l0.103-157.522h-73.143l-0.103 157.47c-21.497 12.741-36.613 35.163-36.613 61.959 0 40.398 32.745 73.143 73.143 73.143s73.143-32.745 73.143-73.143c0-26.759-15.086-49.157-36.53-61.906z" />
<glyph unicode="&#xe98c;" glyph-name="uE98C-security-lock-fill" data-tags="uE98C-security-lock-fill" d="M658.286 438.857v219.429c0 133.287-86.144 219.429-219.429 219.429s-219.429-86.144-219.429-219.429v-219.429h-146.286v-585.143h731.429v585.143h-146.286zM475.47 157.522l0.103-157.522h-73.143l-0.103 157.47c-21.497 12.741-36.613 35.163-36.613 61.959 0 40.398 32.745 73.143 73.143 73.143s73.143-32.745 73.143-73.143c0-26.759-15.086-49.157-36.53-61.906zM585.143 438.857h-292.571v219.429c0 92.965 53.321 146.286 146.286 146.286s146.286-53.321 146.286-146.286v-219.429z" />
<glyph unicode="&#xe98d;" glyph-name="uE98D-security-unlock" data-tags="uE98D-security-unlock" d="M804.571 877.714c-133.287 0-219.429-86.144-219.429-219.429v-219.429h-512v-585.143h731.429v585.143h-146.286v219.429c0 92.965 53.287 146.286 146.286 146.286s146.286-53.321 146.286-146.286v-219.429h73.143v219.429c0 133.285-86.142 219.429-219.429 219.429zM731.429 365.714v-438.857h-585.143v438.857h585.143zM475.47 157.522l0.103-157.522h-73.143l-0.103 157.47c-21.497 12.741-36.613 35.163-36.613 61.959 0 40.398 32.745 73.143 73.143 73.143s73.143-32.745 73.143-73.143c0-26.759-15.086-49.157-36.53-61.906z" />
<glyph unicode="&#xe98e;" glyph-name="uE98E-security-unlock-fill" data-tags="uE98E-security-unlock-fill" d="M804.571 877.714c-133.287 0-219.429-86.144-219.429-219.429v-219.429h-512v-585.143h731.429v585.143h-146.286v219.429c0 92.965 53.287 146.286 146.286 146.286s146.286-53.321 146.286-146.286v-219.429h73.143v219.429c0 133.285-86.142 219.429-219.429 219.429zM475.47 157.522l0.103-157.522h-73.143l-0.103 157.47c-21.497 12.741-36.613 35.163-36.613 61.959 0 40.398 32.745 73.143 73.143 73.143s73.143-32.745 73.143-73.143c0-26.759-15.086-49.157-36.53-61.906z" />
<glyph unicode="&#xe98f;" glyph-name="uE98F-settings-gear" data-tags="uE98F-settings-gear" d="M655.685 712.596c-10.674 4.421-21.634 6.395-32.448 9.762l-25.89 155.353-170.663 0.002-25.867-155.161c-24.185-7.615-44.87-16.393-64.513-26.87l-125.99 92.415-120.69-120.674 91.545-128.155c-5.262-10.037-11.63-19.195-16.050-29.87s-6.393-21.627-9.762-32.448l-155.353-25.89-0.002-170.663 155.161-25.867c7.615-24.185 16.393-44.87 26.87-64.513l-92.413-125.985 120.677-120.683 128.153 91.538c10.037-5.262 19.195-11.63 29.87-16.050s21.627-6.393 32.448-9.762l25.888-155.353 170.663-0.007 25.867 155.161c24.185 7.615 44.87 16.393 64.513 26.87l125.985-92.413 120.686 120.677-91.541 128.146c5.264 10.046 11.63 19.195 16.055 29.879 4.421 10.674 6.393 21.627 9.762 32.448l155.353 25.888 0.002 170.661-155.161 25.867c-7.615 24.185-16.393 44.87-26.87 64.513l92.413 125.985-120.677 120.686-128.151-91.536c-10.039 5.262-19.195 11.63-29.87 16.050zM673.817 365.714c0-89.369-72.448-161.817-161.817-161.817s-161.817 72.448-161.817 161.817 72.448 161.817 161.817 161.817 161.817-72.448 161.817-161.817z" />
<glyph unicode="&#xe990;" glyph-name="uE990-settings-gear-outline" data-tags="uE990-settings-gear-outline" d="M623.042-147.28h-222.114l-25.349 152.096c-4.783 1.472-8.553 2.858-12.238 4.407-3.689 1.575-7.294 3.307-10.804 5.192l-124.759-89.965-157.056 157.070 90.434 126.599c-2.121 4.382-5.049 11.299-7.779 18.315l-154.372 28.238v222.114l152.094 25.349c1.477 4.792 2.865 8.562 4.413 12.247 1.57 3.677 3.302 7.281 5.187 10.79l-89.973 124.764 157.077 157.056 126.599-90.434c4.393 2.127 11.312 5.054 18.329 7.784l28.227 154.367h222.112l25.349-152.096c3.657-1.141 7.458-2.466 11.369-4.085 4.561-1.9 8.165-3.632 11.675-5.517l124.759 89.967 157.058-157.067-90.434-126.599c2.124-4.387 5.051-11.305 7.781-18.322l154.37-28.233v-222.112l-152.096-25.349c-1.471-4.783-2.857-8.553-4.407-12.239-1.574-3.688-3.308-7.293-5.195-10.804l89.968-124.759-157.067-157.061-126.601 90.434c-4.382-2.121-11.299-5.049-18.315-7.779l-28.24-154.369zM464.571-72.149h94.827l22.59 135.481 22.057 6.887c20.034 6.297 37.179 13.573 53.452 22.267l18.811 9.918 111.767-79.84 67.056 67.051-79.929 111.899 10.718 20.462c2.174 4.155 4.343 7.874 6.439 11.474 2.898 4.974 5.401 9.271 7.042 13.23 1.634 3.947 2.901 8.757 4.368 14.327 1.054 4.007 2.144 8.146 3.534 12.599l6.882 22.069 135.673 22.613v94.83l-135.488 22.587-6.885 22.062c-6.325 20.051-13.598 37.193-22.272 53.476l-9.908 18.785 79.84 111.767-67.054 67.056-111.913-79.936-20.471 10.731c-4.137 2.169-7.845 4.331-11.429 6.421-4.978 2.903-9.28 5.41-13.232 7.047l-0.002 0.002c-3.979 1.648-8.809 2.919-14.4 4.391-3.982 1.049-8.098 2.135-12.519 3.509l-22.089 6.873-22.615 135.689h-94.83l-22.587-135.486-22.062-6.885c-20.052-6.326-37.195-13.6-53.479-22.275l-18.784-9.908-111.769 79.84-67.061-67.051 79.943-111.918-10.734-20.471c-2.169-4.137-4.329-7.842-6.421-11.429-2.905-4.978-5.41-9.28-7.047-13.234-1.648-3.979-2.921-8.809-4.393-14.402-1.047-3.979-2.133-8.094-3.506-12.512l-6.873-22.094-135.691-22.615v-94.827l135.486-22.59 6.885-22.059c6.293-20.032 13.569-37.175 22.263-53.447l9.92-18.814-79.84-111.767 67.054-67.056 111.915 79.936 20.469-10.731c4.137-2.169 7.845-4.331 11.429-6.421 4.981-2.905 9.28-5.41 13.239-7.051 3.959-1.639 8.77-2.905 14.341-4.373 4.005-1.054 8.144-2.144 12.597-3.534l22.071-6.882 22.617-135.671zM512 177.892c-103.566 0-187.822 84.256-187.822 187.822s84.256 187.822 187.822 187.822c103.566 0 187.822-84.256 187.822-187.822s-84.256-187.822-187.822-187.822zM512 478.407c-62.139 0-112.693-50.553-112.693-112.693s50.553-112.693 112.693-112.693c62.139 0 112.693 50.553 112.693 112.693s-50.553 112.693-112.693 112.693z" />
<glyph unicode="&#xe991;" glyph-name="uE991-settings-wrench" data-tags="uE991-settings-wrench" d="M987.442 738.754c22.606-39.76 36.558-85.102 36.558-134.107 0-150.811-122.251-273.065-273.065-273.065-21.013 0-41.253 2.873-60.891 7.365l-442.811-442.811c-56.555-56.565-148.251-56.565-204.811 0-56.571 56.549-56.571 148.251 0 204.807l442.798 442.811c-4.491 19.639-7.36 39.879-7.36 60.887 0.002 150.818 122.265 273.074 273.077 273.074 49.006 0 94.343-13.957 134.107-36.56l-202.377-202.377 102.4-102.4 202.377 202.377z" />
<glyph unicode="&#xe992;" glyph-name="uE992-trash" data-tags="uE992-trash" d="M365.714 73.143h-73.143v438.857h73.143v-438.857zM512 512h-73.143v-438.857h73.143v438.857zM658.286 512h-73.143v-438.857h73.143v438.857zM877.714 731.428v-73.143h-73.143v-731.429c0-40.393-32.745-73.143-73.143-73.143h-512c-40.398 0-73.143 32.75-73.143 73.143v731.429h-73.143v73.143h219.429v73.143c0 40.398 32.745 73.143 73.143 73.143h219.429c40.398 0 73.143-32.745 73.143-73.143v-73.143h219.429zM365.714 731.428h219.429v73.143h-219.429v-73.143zM731.429 658.285h-512v-731.429h512v731.429z" />
<glyph unicode="&#xe993;" glyph-name="uE993-share" data-tags="uE993-share" d="M775.36 15.712c2.069-9.28 3.282-18.857 3.282-28.709 0-73.577-59.714-133.289-133.353-133.289-73.577 0-133.289 59.714-133.289 133.289 0 73.641 59.714 133.28 133.289 133.28 36.923 0 70.354-14.994 94.501-39.285 83.785 67.001 137.925 169.355 137.925 284.715 0 83.035-28.855 158.821-75.717 220.286 19.609 16.237 35.918 35.643 48.326 57.549 62.96-74.762 100.533-171.905 100.533-277.834 0-143.285-69.289-269.927-175.497-350.002zM671.216 877.714c-52.933 0-98.361-31.177-119.863-75.963-13.067 1.211-25.993 2.821-39.353 2.821-162.354 0-303.785-88.427-379.714-219.536l1.001 0.107c26.789 0 52.215-5.499 75.785-14.857 65.785 97.143 176.99 161.143 302.928 161.143 9.358 0 18.354-1.211 27.429-2.071 7.573-66.393 63.355-118.249 131.79-118.249 73.641 0 133.353 59.714 133.353 133.287 0 73.639-59.714 133.319-133.353 133.319zM447.141-67.571c-4.855 17.497-8.283 35.57-8.283 54.574 0 7.931 1.074 15.573 2 23.209-128.786 25.787-233.211 118.073-274.715 239.787 57.646 14.713 100.503 66.537 100.503 128.713 0 73.646-59.717 133.287-133.36 133.287-73.57 0-133.285-59.643-133.285-133.287 0-58.142 37.499-107.072 89.499-125.285 44.43-167.003 183.643-295.216 357.646-320.999z" />
<glyph unicode="&#xe994;" glyph-name="uE994-shop" data-tags="uE994-shop" d="M804.571 658.285l146.286-73.143v-658.286l-146.286-73.143-804.571 146.286v512l804.571 146.286zM650.407 674.057l71.92 13.081c-22.514 85.648-88.553 148.763-182.206 153.008 30.928-27.312 47.17-60.469 64.389-98.526 23.696-16.53 37.92-40.304 45.897-67.563zM219.429 595.696v26.018c0 80.642 65.643 146.286 146.286 146.286 71.504 0 130.969-51.682 143.584-119.598l71.826 13.063c-18.798 102.025-108.023 179.678-215.41 179.678-121.001 0-219.429-98.43-219.429-219.429v-39.317l73.143 13.298z" />
<glyph unicode="&#xe995;" glyph-name="uE995-shop-server" data-tags="uE995-shop-server" d="M677.653 741.62c-17.214 38.062-33.461 71.218-64.384 98.526 93.653-4.245 159.682-67.362 182.197-153.003l-71.915-13.086c-7.977 27.259-22.206 51.033-45.897 67.563zM877.714 658.285l-804.571-146.286h365.714v-578.496l438.857-79.79 146.286 73.143v658.286l-146.286 73.143zM292.571 621.714c0 80.642 65.648 146.286 146.286 146.286 71.504 0 130.969-51.682 143.584-119.593l71.826 13.063c-18.802 102.025-108.023 179.673-215.41 179.673-121.001 0-219.429-98.43-219.429-219.429v-39.312l73.143 13.294v26.018zM365.714 438.857v-585.143h-365.714v585.143h365.714zM292.571 0h-73.143v-73.143h73.143v73.143zM292.571 219.428h-219.429v-73.143h219.429v73.143zM292.571 365.714h-219.429v-73.143h219.429v73.143z" />
<glyph unicode="&#xe996;" glyph-name="uE996-tag" data-tags="uE996-tag" d="M438.857-88.286l-380.857 380.857 585.143 585.143h380.857v-380.857l-585.143-585.143zM161.429 292.571l277.429-277.429 512 512v277.429h-277.429l-512-512zM804.571 731.428c-40.395 0-73.143-32.747-73.143-73.143s32.747-73.143 73.143-73.143 73.143 32.747 73.143 73.143-32.747 73.143-73.143 73.143z" />
<glyph unicode="&#xe997;" glyph-name="uE997-tag-fill" data-tags="uE997-tag-fill" d="M643.143 877.714l-585.143-585.143 380.857-380.857 585.143 585.143v380.857h-380.857zM804.571 585.143c-40.398 0-73.143 32.75-73.143 73.143 0 40.398 32.745 73.143 73.143 73.143s73.143-32.745 73.143-73.143c0-40.393-32.745-73.143-73.143-73.143z" />
<glyph unicode="&#xe998;" glyph-name="uE998-user" data-tags="uE998-user" d="M671.986 277.652c95.177 55.509 160.014 157.57 160.014 275.49 0 176.464-143.57 320-320 320-176.464 0-320-143.536-320-320 0-117.92 64.816-219.986 160-275.497-172.427-63.399-292.571-226.839-292.571-423.931h73.143c0 212.786 166.679 379.429 379.429 379.429 216.286 0 379.429-163.143 379.429-379.429h73.143c0 197.097-120.142 360.539-292.585 423.938zM265.143 553.143c0 136.107 110.75 246.857 246.857 246.857 136.144 0 246.857-110.75 246.857-246.857s-110.715-246.857-246.857-246.857c-136.107 0-246.857 110.75-246.857 246.857z" />
<glyph unicode="&#xe999;" glyph-name="uE999-users" data-tags="uE999-users" d="M832.697 494.269c48.087 37.285 79.086 95.829 79.086 161.23 0 112.331-91.355 203.813-203.712 203.813-112.274 0-203.634-91.291-203.634-203.616 0-65.394 30.994-124.149 79.054-161.433-49.207-25.655-89.57-65.874-115.269-115.109-37.285 48.174-95.643 79.246-161.143 79.246-112.32 0-203.68-91.36-203.68-203.68 0-65.394 30.999-123.687 79.070-160.971-86.613-45.154-145.897-135.794-145.897-240.034h73.143c0 108.857 88.535 197.358 197.358 197.358s197.358-88.503 197.358-197.358h73.143c0 104.233-59.282 194.88-145.89 240.030 47.835 37.097 78.743 94.981 79.063 159.97h0.014c0 109.714 88.535 197.394 197.321 197.394 108.859 0 197.36-87.68 197.36-197.394h73.143c0 105.143-59.278 195.401-145.874 240.555zM307.074 124.212c-71.966 0-130.537 58.574-130.537 130.503 0 71.963 58.571 130.537 130.537 130.537s130.533-58.574 130.533-130.537c0-71.931-58.571-130.501-130.537-130.501zM708.069 525.252c-71.927 0-130.498 58.537-130.498 130.501s58.574 130.533 130.498 130.533c72 0 130.574-58.571 130.574-130.537s-58.571-130.498-130.571-130.498z" />
<glyph unicode="&#xe99a;" glyph-name="uE99A-variable" data-tags="uE99A-variable" d="M761.687 350.624c24.242-88.016 57.147-172.027 71.735-191.358 8.583-11.47 17.232-17.122 26.101-17.122 7.367 0 13.879 1.835 19.239 5.653 8.224 6.178 21.026 21.614 38.119 46.235l15.381-9.259c-25.033-41.602-49.705-70.926-73.595-87.982-18.309-13.232-36.258-19.771-53.998-19.771-18.235 0-33.397 4.192-45.561 12.569-12.085 8.377-22.953 21.902-32.327 40.869-9.44 18.96-34.041 79.527-46.841 121.163-33.401-43.696-85.538-105.877-104.491-126.018-19.095-19.991-34.83-33.221-47.346-39.394-12.517-6.171-26.034-9.191-40.123-9.191-14.949 0-26.75 4.336-35.33 13.232-8.795 8.745-13.088 20.217-13.088 34.329 0 14.917 4.649 27.193 14.089 36.894 9.369 9.701 21.385 14.553 35.902 14.553 7.723 0 16.45-2.352 26.247-7.056 14.16-7.056 24.459-10.585 30.61-10.585 8.368 0 15.806 1.765 22.315 5.291 8.583 4.411 19.454 13.966 32.542 28.592 8.011 9.113 48.704 58.8 70.089 88.457-27.392 104.37-48.777 166.846-64.226 187.353-9.726 13.193-21.957 19.771-36.832 19.771-7.653 0-46.631-33.15-57.787-35.463v75.081h181.872c27.113-43.733 46.206-91.765 57.358-144.281 28.041 42.519 49.207 72.288 63.445 89.303 19.166 22.859 34.898 37.705 47.2 44.651 12.443 6.873 25.678 10.327 39.621 10.327 15.739 0 27.822-4.409 36.258-13.193 8.37-8.857 12.59-20.727 12.59-35.611 0-14.149-4.219-25.653-12.59-34.581-8.437-8.894-19.019-13.413-31.609-13.413-9.015 0-19.525 1.728-31.397 5.109-11.806 3.344-20.030 4.997-24.608 4.997-11.945 0-23.458-4.409-34.254-13.157-14.873-12.021-33.109-37.673-54.706-76.994zM382.99 516.733c17.666 74.162 41.054 128.478 70.162 162.766 17.666 21.39 34.974 32.082 51.851 32.082 3.433 0 6.222-0.992 8.368-3.088 2.144-2.021 3.145-4.667 3.145-7.902 0-2.939-2.359-8.489-7.081-16.757-4.649-8.158-7.008-15.95-7.008-23.262 0-10.29 3.648-19.074 11.157-26.35 7.438-7.387 16.807-10.99 28.178-10.99 12.302 0 22.601 4.446 30.754 13.378 8.297 8.93 12.517 21.058 12.517 36.309 0 17.273-6.151 31.349-18.667 42.19-12.373 10.841-32.327 16.318-59.648 16.318-42.841 0-81.675-12.935-116.363-38.734-34.974-25.835-68.016-68.43-99.342-128.037-10.942-20.544-21.241-33.701-30.896-39.543-9.655-5.845-25.175-8.638-46.631-8.379l-14.089-51.413h59.504l-87.397-351.479c-14.519-57.774-24.318-93.417-29.467-106.869-7.438-19.705-18.738-36.457-33.899-50.133-5.936-5.584-13.088-8.377-21.742-8.377-2.288 0-4.219 0.738-6.080 2.206l-2.073 3.010c0 1.55 2.073 4.487 6.366 9.047 4.293 4.553 6.437 11.463 6.437 20.871 0 10.288-3.36 18.816-10.226 25.575-6.866 6.766-16.665 10.002-29.467 10.002-15.52 0-27.822-4.267-37.262-13.088-9.511-8.823-14.089-19.255-14.089-31.312 0-12.862 5.65-24.107 17.093-33.591 11.371-9.552 29.179-14.331 53.497-14.331 38.549 0 72.663 10.363 102.487 31.017 29.895 20.727 55.785 52.624 78.101 95.698 22.171 43.074 45.129 112.601 68.517 208.482l50.064 203.266h60.434l14.949 51.413h-62.151z" />
<glyph unicode="&#xe99b;" glyph-name="uE99B-video" data-tags="uE99B-video" d="M1024 564.786l-292.571-109.714v130.071h-731.429v-512h731.429v130.103l292.571-109.744v471.285zM658.286 146.285h-585.143v365.714h585.143v-365.714zM950.857 199.072l-219.429 82.254v95.605l219.429 82.286v-260.144z" />
<glyph unicode="&#xe99c;" glyph-name="uE99C-view-grid" data-tags="uE99C-view-grid" d="M365.714 585.143h-219.429v219.429h219.429v-219.429zM658.286 804.571h-219.429v-219.429h219.429v219.429zM950.857 804.571h-219.429v-219.429h219.429v219.429zM365.714 512h-219.429v-219.429h219.429v219.429zM658.286 512h-219.429v-219.429h219.429v219.429zM950.857 512h-219.429v-219.429h219.429v219.429zM365.714 219.428h-219.429v-219.429h219.429v219.429zM658.286 219.428h-219.429v-219.429h219.429v219.429zM950.857 219.428h-219.429v-219.429h219.429v219.429z" />
<glyph unicode="&#xe99d;" glyph-name="uE99D-watch-eye" data-tags="uE99D-watch-eye" d="M9.143 366.971l0.425-1.102-0.425-1.337v2.437zM705.714 304c0 106.811-86.903 193.714-193.714 193.714s-193.714-86.903-193.714-193.714 86.903-193.714 193.714-193.714 193.714 86.903 193.714 193.714zM632.571 304c0-66.485-54.087-120.571-120.571-120.571-66.482 0-120.571 54.087-120.571 120.571 0 66.482 54.089 120.571 120.571 120.571 66.485 0 120.571-54.089 120.571-120.571zM869.303 620.539c-95.694 82.935-222.583 128.603-357.303 128.603s-261.614-45.669-357.303-128.603c-97.177-84.219-150.697-196.64-150.697-316.539h73.143c0 205.12 195.077 372 434.857 372s434.857-166.88 434.857-372h73.143c0 119.902-53.518 232.32-150.697 316.539z" />
<glyph unicode="&#xe99e;" glyph-name="uE99E-watch-eye-fill" data-tags="uE99E-watch-eye-fill" d="M9.143 366.969l0.423-1.099-0.423-1.337v2.437zM512 486.859c-100.997 0-182.857-81.87-182.857-182.859s81.863-182.859 182.857-182.859c100.985 0 182.857 81.87 182.857 182.859s-81.872 182.859-182.857 182.859zM512 749.143c-280.107 0-508-199.678-508-445.143h73.143c0 205.106 195.072 372 434.857 372s434.857-166.894 434.857-372h73.143c0 245.465-227.856 445.143-508 445.143z" />
<glyph unicode="&#xe99f;" glyph-name="uE99F-live-update-feed" data-tags="uE99F-live-update-feed" d="M621.714 365.714c0-60.599-49.122-109.714-109.714-109.714-60.599 0-109.714 49.115-109.714 109.714 0 60.592 49.115 109.714 109.714 109.714 60.592 0 109.714-49.122 109.714-109.714zM363.214 199.785c-47.001 42.215-73.963 102.679-73.963 165.785 0 63.287 27.072 123.822 74.249 166.037l-48.786 54.501c-62.679-56.071-98.608-136.464-98.608-220.535 0-83.858 35.822-164.071 98.249-220.215l48.859 54.427zM807.929 365.856c0 83.822-35.785 164.071-98.286 220.215l-48.857-54.43c47.001-42.249 74-102.679 74-165.785 0-63.214-27.072-123.785-74.286-166.071l48.857-54.43c62.642 56.144 98.571 136.501 98.571 220.501zM210.178 68.713c-88.357 80.571-137.035 189.358-137.035 306.322 0 107.893 42.322 210.535 119.214 289.106l-52.286 51.143c-90.32-92.286-140.071-213.143-140.071-340.249 0-135.822 58.642-267.179 160.894-360.322l49.285 54zM1024 375.035c0 127.214-49.785 248.107-140.215 340.43l-52.286-51.214c77.001-78.537 119.358-181.253 119.358-289.216 0-117.106-48.715-225.963-137.214-306.393l49.287-54.144c102.357 93.145 161.070 224.574 161.070 360.537z" />
<glyph unicode="&#xe9a0;" glyph-name="uE9A0-checkbox" data-tags="uE9A0-checkbox" d="M365.714 72.64l-179.465 179.429 51.714 51.717 127.751-127.717 332.571 332.537 51.714-51.714-384.286-384.251zM950.857 804.571h-950.857v-950.857h950.857v950.857zM73.143 731.428h804.571v-804.571h-804.571v804.571z" />
<glyph unicode="&#xe9a1;" glyph-name="uE9A1-checkbox-empty" data-tags="uE9A1-checkbox-empty" d="M950.857 804.571h-950.857v-950.857h950.857v950.857zM73.143 731.428h804.571v-804.571h-804.571v804.571z" />
<glyph unicode="&#xe9a2;" glyph-name="uE9A2-chevron-up" data-tags="uE9A2-chevron-up" d="M723.856 220.999l-211.856 211.854-211.854-211.854-51.721 51.719 263.575 263.573 263.573-263.575-51.717-51.717z" />
<glyph unicode="&#xe9a3;" glyph-name="uE9A3-chevron-left" data-tags="uE9A3-chevron-left" d="M604.999 102.141l-263.575 263.573 263.575 263.575 51.719-51.721-211.856-211.854 211.854-211.856-51.717-51.717z" />
<glyph unicode="&#xe9a4;" glyph-name="uE9A4-chevron-down" data-tags="uE9A4-chevron-down" d="M512 195.138l-263.575 263.573 51.721 51.721 211.854-211.854 211.856 211.854 51.719-51.721-263.575-263.573z" />
<glyph unicode="&#xe9a5;" glyph-name="uE9A5-chevron-right" data-tags="uE9A5-chevron-right" d="M419.003 102.141l-51.721 51.719 211.854 211.854-211.854 211.854 51.721 51.721 263.573-263.575-263.573-263.573z" />
<glyph unicode="&#xe9a6;" glyph-name="uE9A6-chevron-up-light" data-tags="uE9A6-chevron-up-light" d="M512 605.641l428.137-428.146-51.712-51.712-376.434 376.434-376.421-376.434-51.707 51.712 428.137 428.146z" />
<glyph unicode="&#xe9a7;" glyph-name="uE9A7-chevron-left-light" data-tags="uE9A7-chevron-left-light" d="M272.073 365.714l428.137 428.142 51.719-51.714-376.432-376.427 376.434-376.43-51.719-51.712-428.137 428.142z" />
<glyph unicode="&#xe9a8;" glyph-name="uE9A8-chevron-down-light" data-tags="uE9A8-chevron-down-light" d="M512 125.783l-428.144 428.144 51.714 51.714 376.43-376.43 376.43 376.434 51.712-51.717-428.142-428.146z" />
<glyph unicode="&#xe9a9;" glyph-name="uE9A9-chevron-right-light" data-tags="uE9A9-chevron-right-light" d="M751.927 365.714l-428.137-428.142-51.717 51.714 376.43 376.427-376.43 376.43 51.714 51.712 428.137-428.142z" />
<glyph unicode="&#xe9aa;" glyph-name="uE9AA-chevron-up-all" data-tags="uE9AA-chevron-up-all" d="M723.858 60.999l-211.858 211.858-211.858-211.858-51.714 51.714 263.573 263.573 263.573-263.573-51.714-51.714zM775.573 432.713l-263.573 263.573-263.57-263.573 51.714-51.714 211.856 211.858 211.858-211.858 51.714 51.714z" />
<glyph unicode="&#xe9ab;" glyph-name="uE9AB-chevron-left-all" data-tags="uE9AB-chevron-left-all" d="M765.001 102.141l-263.573 263.573 263.573 263.573 51.714-51.714-211.858-211.858 211.858-211.858-51.714-51.714zM496.715 153.856l-211.858 211.858 211.858 211.858-51.714 51.714-263.573-263.573 263.573-263.573 51.714 51.714z" />
<glyph unicode="&#xe9ac;" glyph-name="uE9AC-chevron-down-all" data-tags="uE9AC-chevron-down-all" d="M512 355.143l-263.57 263.57 51.714 51.714 211.856-211.856 211.858 211.858 51.714-51.714-263.573-263.573zM775.573 298.713l-51.714 51.714-211.858-211.856-211.858 211.858-51.714-51.714 263.573-263.573 263.573 263.57z" />
<glyph unicode="&#xe9ad;" glyph-name="uE9AD-chevron-right-all" data-tags="uE9AD-chevron-right-all" d="M259.001 102.141l-51.714 51.714 211.856 211.858-211.858 211.858 51.714 51.714 263.573-263.573-263.57-263.573zM842.571 365.714l-263.57 263.57-51.714-51.714 211.856-211.856-211.858-211.858 51.714-51.714 263.573 263.573z" />
<glyph unicode="&#xe9ae;" glyph-name="uE9AE-chevron-up-end" data-tags="uE9AE-chevron-up-end" d="M723.858 134.071l-211.858 211.893-211.858-211.893-51.714 51.714 263.573 263.607 263.573-263.607-51.714-51.714zM804.571 658.285h-585.143v-73.143h585.143v73.143z" />
<glyph unicode="&#xe9af;" glyph-name="uE9AF-chevron-left-end" data-tags="uE9AF-chevron-left-end" d="M765.001 102.141l-263.573 263.573 263.573 263.573 51.714-51.714-211.858-211.858 211.858-211.858-51.714-51.714zM365.714 658.285h-73.143v-585.143h73.143v585.143z" />
<glyph unicode="&#xe9b0;" glyph-name="uE9B0-chevron-down-end" data-tags="uE9B0-chevron-down-end" d="M512 355.143l-263.57 263.57 51.714 51.714 211.856-211.856 211.858 211.858 51.714-51.714-263.573-263.573zM804.571 219.428h-585.143v-73.143h585.143v73.143z" />
<glyph unicode="&#xe9b1;" glyph-name="uE9B1-chevron-right-end" data-tags="uE9B1-chevron-right-end" d="M259.001 102.141l-51.714 51.714 211.856 211.858-211.858 211.858 51.714 51.714 263.573-263.573-263.57-263.573zM731.429 658.285h-73.143v-585.143h73.143v585.143z" />
<glyph unicode="&#xe9b2;" glyph-name="uE9B2-fold-less" data-tags="uE9B2-fold-less" d="M512 451.138l-263.575 263.573 51.721 51.721 211.854-211.856 211.856 211.856 51.719-51.721-263.575-263.573zM775.573 16.715l-263.573 263.575-263.575-263.575 51.721-51.719 211.854 211.854 211.856-211.854 51.717 51.719z" />
<glyph unicode="&#xe9b3;" glyph-name="uE9B3-fold-more" data-tags="uE9B3-fold-more" d="M723.856 476.996l-211.856 211.856-211.854-211.856-51.721 51.721 263.575 263.573 263.573-263.573-51.717-51.721zM775.573 202.711l-51.719 51.721-211.854-211.854-211.854 211.854-51.721-51.719 263.575-263.575 263.573 263.575z" />
<glyph unicode="&#xe9b4;" glyph-name="uE9B4-ellipsis" data-tags="uE9B4-ellipsis" d="M219.429 402.285c0-60.594-49.12-109.714-109.714-109.714s-109.714 49.12-109.714 109.714 49.12 109.714 109.714 109.714 109.714-49.12 109.714-109.714zM475.429 512c-60.594 0-109.714-49.12-109.714-109.714s49.12-109.714 109.714-109.714 109.714 49.12 109.714 109.714-49.12 109.714-109.714 109.714zM841.143 512c-60.594 0-109.714-49.12-109.714-109.714s49.12-109.714 109.714-109.714 109.714 49.12 109.714 109.714-49.12 109.714-109.714 109.714z" />
<glyph unicode="&#xe9b5;" glyph-name="uE9B5-ellipsis-vertical" data-tags="uE9B5-ellipsis-vertical" d="M475.429 73.143c60.594 0 109.714-49.12 109.714-109.714s-49.12-109.714-109.714-109.714-109.714 49.12-109.714 109.714 49.12 109.714 109.714 109.714zM365.714 329.143c0-60.594 49.12-109.714 109.714-109.714s109.714 49.12 109.714 109.714-49.12 109.714-109.714 109.714-109.714-49.12-109.714-109.714zM365.714 694.857c0-60.594 49.12-109.714 109.714-109.714s109.714 49.12 109.714 109.714-49.12 109.714-109.714 109.714-109.714-49.12-109.714-109.714z" />
<glyph unicode="&#xe9b6;" glyph-name="uE9B6-favorite" data-tags="uE9B6-favorite" d="M1024 480.665l-353.781 51.41-158.219 320.581-158.219-320.581-353.781-51.41 256-249.536-60.432-352.357 316.432 166.361 316.432-166.361-60.432 352.357 256 249.536z" />
<glyph unicode="&#xe9b7;" glyph-name="uE9B7-favorite-outline" data-tags="uE9B7-favorite-outline" d="M1024 480.665l-353.781 51.41-158.219 320.581-158.219-320.581-353.781-51.41 256-249.536-60.432-352.357 316.432 166.361 316.432-166.361-60.432 352.357 256 249.536zM512 127.785l-219.287-115.287 41.893 244.178-177.429 172.928 245.179 35.607 109.643 222.181 109.643-222.178 245.179-35.607-177.429-172.928 41.893-244.178-219.287 115.285z" />
<glyph unicode="&#xe9b8;" glyph-name="uE9B8-star-half" data-tags="uE9B8-star-half" d="M1024 480.665l-353.781 51.41-158.219 320.581-158.219-320.581-353.781-51.41 256-249.536-60.432-352.357 316.432 166.361 316.432-166.361-60.432 352.357 256 249.536zM512 127.785v559.607l109.643-222.178 245.179-35.607-177.429-172.928 41.893-244.178-219.287 115.285z" />
<glyph unicode="&#xe9b9;" glyph-name="uE9B9-pin" data-tags="uE9B9-pin" d="M662.491 867.57l-25.863-25.856c-41.378-41.378-59.52-100.073-49.783-157.431l-185.966-185.966c-39.278 12.562-80.946 15.349-121.89 8.007-50.674-9.086-96.761-33.189-133.273-69.701l-25.854-25.858 190.857-190.862-295.006-296.046-15.714-70.144 73.074 17.499 293.179 293.152 190.789-190.789 25.861 25.856c36.517 36.512 60.617 82.597 69.703 133.271 7.342 40.946 4.549 82.617-8.007 121.897l185.966 185.966c57.371-9.737 116.057 8.405 157.429 49.778l25.858 25.858-351.36 351.362zM829.525 515.776l-20.914 6.267-249.936-249.936 9.886-22.816c24.535-56.626 18.553-119.904-14.149-169.646l-328.48 328.48c49.737 32.697 113.024 38.686 169.646 14.149l22.816-9.886 249.938 249.936-6.263 20.914c-7.735 25.819-5.639 52.878 5.074 76.24l238.624-238.629c-23.367-10.709-50.423-12.8-76.242-5.074z" />
<glyph unicode="&#xe9ba;" glyph-name="uE9BA-pin-fill" data-tags="uE9BA-pin-fill" d="M987.429 522.322c-41.257-41.257-100.027-53.371-152.263-37.726l-230.793-230.791c36.395-84 20.709-185.143-47.954-253.801l-177.264 177.264-306.080-306.057-73.074-17.497 15.714 70.144 307.881 308.965-177.31 177.312c68.663 68.663 169.806 84.35 253.801 47.954l230.793 230.789c-15.641 52.229-3.531 111.006 37.728 152.265l318.821-318.821z" />
<glyph unicode="&#xe9bb;" glyph-name="uE9BB-pin-pinned" data-tags="uE9BB-pin-pinned" d="M658.286 481.634v212.005c45.577 34.491 73.143 89.223 73.143 147.504v36.571h-512v-36.571c0-58.281 27.566-113.013 73.143-147.504v-212c-89.675-41.874-146.286-127.925-146.286-225.639v-36.571h292.571v-292.571l36.571-73.143 36.571 73.143v292.571h292.571v36.571c0 97.714-56.61 183.767-146.286 225.634zM223.168 292.571c12.469 59.579 55.415 107.785 118.224 130.112l24.32 8.647v302.841l-18.183 10.583c-22.713 13.211-39.961 34.949-48.667 59.817h353.12c-8.709-24.864-25.952-46.601-48.67-59.817l-18.169-10.583v-302.841l24.32-8.647c62.811-22.331 105.76-70.533 118.226-130.112h-504.521z" />
<glyph unicode="&#xe9bc;" glyph-name="uE9BC-pin-pinned-fill" data-tags="uE9BC-pin-pinned-fill" d="M804.571 219.428h-292.571v-292.571l-36.571-73.143-36.571 73.143v292.571h-292.571c0 107.328 68.914 192.279 164.571 226.286v288c-48.983 28.507-82.286 83.239-82.286 144h493.714c0-60.761-33.303-115.493-82.286-144v-288c95.657-34.007 164.571-118.958 164.571-226.286z" />
<glyph unicode="&#xe9bd;" glyph-name="uE9BD-pin-unpin" data-tags="uE9BD-pin-unpin" d="M987.429 658.285c-58.281 0-113.013-27.566-147.504-73.143h-212.005c-41.867 89.675-127.92 146.286-225.634 146.286h-36.571v-292.571h-292.571l-73.143-36.571 73.143-36.571h292.571v-292.571h36.571c97.714 0 183.767 56.61 225.634 146.286h212.005c34.491-45.577 89.223-73.143 147.504-73.143h36.571v512h-36.571zM950.857 225.725c-24.869 8.709-46.601 25.952-59.817 48.67l-10.583 18.176h-302.839l-8.647-24.32c-22.331-62.811-70.53-105.76-130.112-118.226v504.521c59.589-12.469 107.79-55.415 130.119-118.224l8.645-24.322h302.834l10.583 18.181c13.216 22.715 34.949 39.961 59.817 48.667v-353.12z" />
</font>
</defs>
</svg>
